<svg width="48" height="48" viewBox="0 0 48 48" fill="none" xmlns="http://www.w3.org/2000/svg">
<path d="M6 14L22.89 2.73999C23.2187 2.52071 23.6049 2.40369 24 2.40369C24.3951 2.40369 24.7813 2.52071 25.11 2.73999L42 14V42C42 42.5304 41.7893 43.0391 41.4142 43.4142C41.0391 43.7893 40.5304 44 40 44H8C7.46957 44 6.96086 43.7893 6.58579 43.4142C6.21071 43.0391 6 42.5304 6 42V14ZM10 16.14V40H38V16.14L24 6.80799L10 16.14ZM16 32H32V36H16V32ZM16 26H32V30H16V26ZM24 22C22.9391 22 21.9217 21.5786 21.1716 20.8284C20.4214 20.0783 20 19.0609 20 18C20 16.9391 20.4214 15.9217 21.1716 15.1716C21.9217 14.4214 22.9391 14 24 14C25.0609 14 26.0783 14.4214 26.8284 15.1716C27.5786 15.9217 28 16.9391 28 18C28 19.0609 27.5786 20.0783 26.8284 20.8284C26.0783 21.5786 25.0609 22 24 22Z" fill="url(#paint0_linear_56_34873)"/>
<defs>
<linearGradient id="paint0_linear_56_34873" x1="6.00404" y1="23.2027" x2="42.003" y2="23.2027" gradientUnits="userSpaceOnUse">
<stop stop-color="#FF3A31"/>
<stop offset="1" stop-color="#FFAE01"/>
</linearGradient>
</defs>
</svg>
