<svg width="48" height="48" viewBox="0 0 48 48" fill="none" xmlns="http://www.w3.org/2000/svg">
<path d="M33.9758 36L36.4078 32.84C36.7497 32.3959 36.9603 31.865 37.0159 31.3074C37.0714 30.7497 36.9697 30.1877 36.7221 29.6849C36.4746 29.1821 36.0912 28.7587 35.6153 28.4627C35.1395 28.1667 34.5902 28.0099 34.0298 28.01H29.9998V20.058C30.0002 19.431 29.8041 18.8197 29.4391 18.3099C29.0741 17.8002 28.5586 17.4176 27.965 17.2159C27.3714 17.0141 26.7294 17.0035 26.1294 17.1854C25.5295 17.3673 25.0015 17.7326 24.6198 18.23L11.8898 34.792C8.46881 33.3764 5.6444 30.8185 3.89778 27.5541C2.15115 24.2897 1.59037 20.5206 2.31097 16.8891C3.03157 13.2576 4.98896 9.98819 7.84969 7.63798C10.7104 5.28777 14.2975 4.0021 17.9998 4C21.2239 3.99981 24.373 4.97329 27.0345 6.79296C29.696 8.61263 31.7459 11.1936 32.9158 14.198C34.4205 13.9086 35.9691 13.9367 37.4623 14.2806C38.9554 14.6245 40.3603 15.2765 41.5868 16.195C42.8133 17.1134 43.8344 18.2779 44.5847 19.614C45.3349 20.95 45.7978 22.428 45.9436 23.9533C46.0894 25.4786 45.9149 27.0176 45.4314 28.4715C44.9478 29.9255 44.1658 31.2624 43.1355 32.3965C42.1052 33.5307 40.8493 34.4371 39.4483 35.0576C38.0473 35.6781 36.5321 35.9991 34.9998 36H33.9758ZM25.9998 32.01H31.9998L21.9998 45.01V36.01H15.9998L25.9998 23V32.01Z" fill="url(#paint0_linear_56_34878)"/>
<defs>
<linearGradient id="paint0_linear_56_34878" x1="2.00982" y1="24.5059" x2="45.9972" y2="24.5059" gradientUnits="userSpaceOnUse">
<stop stop-color="#FF3A31"/>
<stop offset="1" stop-color="#FFAE01"/>
</linearGradient>
</defs>
</svg>
