<svg width="25" height="25" viewBox="0 0 25 25" fill="none" xmlns="http://www.w3.org/2000/svg">
<path d="M12.2617 22.5C6.73872 22.5 2.26172 18.023 2.26172 12.5C2.26172 6.977 6.73872 2.5 12.2617 2.5C17.7847 2.5 22.2617 6.977 22.2617 12.5C22.2617 18.023 17.7847 22.5 12.2617 22.5ZM12.2617 20.5C14.3835 20.5 16.4183 19.6571 17.9186 18.1569C19.4189 16.6566 20.2617 14.6217 20.2617 12.5C20.2617 10.3783 19.4189 8.34344 17.9186 6.84315C16.4183 5.34285 14.3835 4.5 12.2617 4.5C10.14 4.5 8.10516 5.34285 6.60486 6.84315C5.10457 8.34344 4.26172 10.3783 4.26172 12.5C4.26172 14.6217 5.10457 16.6566 6.60486 18.1569C8.10516 19.6571 10.14 20.5 12.2617 20.5ZM11.2647 16.5L7.02172 12.257L8.43572 10.843L11.2647 13.672L16.9207 8.015L18.3357 9.429L11.2647 16.5Z" fill="url(#paint0_linear_75_57878)"/>
<defs>
<linearGradient id="paint0_linear_75_57878" x1="2.26396" y1="12.5004" x2="22.2634" y2="12.5004" gradientUnits="userSpaceOnUse">
<stop stop-color="#FF3A31"/>
<stop offset="1" stop-color="#FFAE01"/>
</linearGradient>
</defs>
</svg>
