<svg width="132" height="20" viewBox="0 0 132 20" fill="none" xmlns="http://www.w3.org/2000/svg">
<g clip-path="url(#clip0_56_25201)">
<path d="M9.07668 2.71993C9.41827 1.89864 10.5817 1.89864 10.9233 2.71993L12.4105 6.29546C12.5545 6.6417 12.8801 6.87827 13.2539 6.90823L17.114 7.2177C18.0006 7.28878 18.3601 8.39529 17.6846 8.97396L14.7436 11.4932C14.4588 11.7372 14.3345 12.1199 14.4215 12.4847L15.32 16.2515C15.5264 17.1167 14.5851 17.8006 13.826 17.3369L10.5213 15.3184C10.2012 15.1229 9.79876 15.1229 9.47875 15.3184L6.17397 17.3369C5.41487 17.8006 4.47362 17.1167 4.68001 16.2515L5.57852 12.4847C5.66553 12.1199 5.54116 11.7372 5.25637 11.4932L2.31539 8.97396C1.63985 8.39529 1.99938 7.28878 2.88603 7.2177L6.74612 6.90823C7.11991 6.87827 7.44552 6.6417 7.58953 6.29546L9.07668 2.71993Z" fill="#F2F4F7"/>
<g clip-path="url(#clip1_56_25201)">
<path d="M9.07668 2.71993C9.41827 1.89864 10.5817 1.89864 10.9233 2.71993L12.4105 6.29546C12.5545 6.6417 12.8801 6.87827 13.2539 6.90823L17.114 7.2177C18.0006 7.28878 18.3601 8.39529 17.6846 8.97396L14.7436 11.4932C14.4588 11.7372 14.3345 12.1199 14.4215 12.4847L15.32 16.2515C15.5264 17.1167 14.5851 17.8006 13.826 17.3369L10.5213 15.3184C10.2012 15.1229 9.79876 15.1229 9.47875 15.3184L6.17397 17.3369C5.41487 17.8006 4.47362 17.1167 4.68001 16.2515L5.57852 12.4847C5.66553 12.1199 5.54116 11.7372 5.25637 11.4932L2.31539 8.97396C1.63985 8.39529 1.99938 7.28878 2.88603 7.2177L6.74612 6.90823C7.11991 6.87827 7.44552 6.6417 7.58953 6.29546L9.07668 2.71993Z" fill="url(#paint0_linear_56_25201)"/>
</g>
</g>
<g clip-path="url(#clip2_56_25201)">
<path d="M37.0767 2.71993C37.4183 1.89864 38.5817 1.89864 38.9233 2.71993L40.4105 6.29546C40.5545 6.6417 40.8801 6.87827 41.2539 6.90823L45.114 7.2177C46.0006 7.28878 46.3601 8.39529 45.6846 8.97396L42.7436 11.4932C42.4588 11.7372 42.3345 12.1199 42.4215 12.4847L43.32 16.2515C43.5264 17.1167 42.5851 17.8006 41.826 17.3369L38.5213 15.3184C38.2012 15.1229 37.7988 15.1229 37.4787 15.3184L34.174 17.3369C33.4149 17.8006 32.4736 17.1167 32.68 16.2515L33.5785 12.4847C33.6655 12.1199 33.5412 11.7372 33.2564 11.4932L30.3154 8.97396C29.6399 8.39529 29.9994 7.28878 30.886 7.2177L34.7461 6.90823C35.1199 6.87827 35.4455 6.6417 35.5895 6.29546L37.0767 2.71993Z" fill="#F2F4F7"/>
<g clip-path="url(#clip3_56_25201)">
<path d="M37.0767 2.71993C37.4183 1.89864 38.5817 1.89864 38.9233 2.71993L40.4105 6.29546C40.5545 6.6417 40.8801 6.87827 41.2539 6.90823L45.114 7.2177C46.0006 7.28878 46.3601 8.39529 45.6846 8.97396L42.7436 11.4932C42.4588 11.7372 42.3345 12.1199 42.4215 12.4847L43.32 16.2515C43.5264 17.1167 42.5851 17.8006 41.826 17.3369L38.5213 15.3184C38.2012 15.1229 37.7988 15.1229 37.4787 15.3184L34.174 17.3369C33.4149 17.8006 32.4736 17.1167 32.68 16.2515L33.5785 12.4847C33.6655 12.1199 33.5412 11.7372 33.2564 11.4932L30.3154 8.97396C29.6399 8.39529 29.9994 7.28878 30.886 7.2177L34.7461 6.90823C35.1199 6.87827 35.4455 6.6417 35.5895 6.29546L37.0767 2.71993Z" fill="url(#paint1_linear_56_25201)"/>
</g>
</g>
<g clip-path="url(#clip4_56_25201)">
<path d="M65.0767 2.71993C65.4183 1.89864 66.5817 1.89864 66.9233 2.71993L68.4105 6.29546C68.5545 6.6417 68.8801 6.87827 69.2539 6.90823L73.114 7.2177C74.0006 7.28878 74.3601 8.39529 73.6846 8.97396L70.7436 11.4932C70.4588 11.7372 70.3345 12.1199 70.4215 12.4847L71.32 16.2515C71.5264 17.1167 70.5851 17.8006 69.826 17.3369L66.5213 15.3184C66.2012 15.1229 65.7988 15.1229 65.4787 15.3184L62.174 17.3369C61.4149 17.8006 60.4736 17.1167 60.68 16.2515L61.5785 12.4847C61.6655 12.1199 61.5412 11.7372 61.2564 11.4932L58.3154 8.97396C57.6399 8.39529 57.9994 7.28878 58.886 7.2177L62.7461 6.90823C63.1199 6.87827 63.4455 6.6417 63.5895 6.29546L65.0767 2.71993Z" fill="#F2F4F7"/>
<g clip-path="url(#clip5_56_25201)">
<path d="M65.0767 2.71993C65.4183 1.89864 66.5817 1.89864 66.9233 2.71993L68.4105 6.29546C68.5545 6.6417 68.8801 6.87827 69.2539 6.90823L73.114 7.2177C74.0006 7.28878 74.3601 8.39529 73.6846 8.97396L70.7436 11.4932C70.4588 11.7372 70.3345 12.1199 70.4215 12.4847L71.32 16.2515C71.5264 17.1167 70.5851 17.8006 69.826 17.3369L66.5213 15.3184C66.2012 15.1229 65.7988 15.1229 65.4787 15.3184L62.174 17.3369C61.4149 17.8006 60.4736 17.1167 60.68 16.2515L61.5785 12.4847C61.6655 12.1199 61.5412 11.7372 61.2564 11.4932L58.3154 8.97396C57.6399 8.39529 57.9994 7.28878 58.886 7.2177L62.7461 6.90823C63.1199 6.87827 63.4455 6.6417 63.5895 6.29546L65.0767 2.71993Z" fill="url(#paint2_linear_56_25201)"/>
</g>
</g>
<g clip-path="url(#clip6_56_25201)">
<path d="M93.0767 2.71993C93.4183 1.89864 94.5817 1.89864 94.9233 2.71993L96.4105 6.29546C96.5545 6.6417 96.8801 6.87827 97.2539 6.90823L101.114 7.2177C102.001 7.28878 102.36 8.39529 101.685 8.97396L98.7436 11.4932C98.4588 11.7372 98.3345 12.1199 98.4215 12.4847L99.32 16.2515C99.5264 17.1167 98.5851 17.8006 97.826 17.3369L94.5213 15.3184C94.2012 15.1229 93.7988 15.1229 93.4787 15.3184L90.174 17.3369C89.4149 17.8006 88.4736 17.1167 88.68 16.2515L89.5785 12.4847C89.6655 12.1199 89.5412 11.7372 89.2564 11.4932L86.3154 8.97396C85.6399 8.39529 85.9994 7.28878 86.886 7.2177L90.7461 6.90823C91.1199 6.87827 91.4455 6.6417 91.5895 6.29546L93.0767 2.71993Z" fill="#F2F4F7"/>
<g clip-path="url(#clip7_56_25201)">
<path d="M93.0767 2.71993C93.4183 1.89864 94.5817 1.89864 94.9233 2.71993L96.4105 6.29546C96.5545 6.6417 96.8801 6.87827 97.2539 6.90823L101.114 7.2177C102.001 7.28878 102.36 8.39529 101.685 8.97396L98.7436 11.4932C98.4588 11.7372 98.3345 12.1199 98.4215 12.4847L99.32 16.2515C99.5264 17.1167 98.5851 17.8006 97.826 17.3369L94.5213 15.3184C94.2012 15.1229 93.7988 15.1229 93.4787 15.3184L90.174 17.3369C89.4149 17.8006 88.4736 17.1167 88.68 16.2515L89.5785 12.4847C89.6655 12.1199 89.5412 11.7372 89.2564 11.4932L86.3154 8.97396C85.6399 8.39529 85.9994 7.28878 86.886 7.2177L90.7461 6.90823C91.1199 6.87827 91.4455 6.6417 91.5895 6.29546L93.0767 2.71993Z" fill="url(#paint3_linear_56_25201)"/>
</g>
</g>
<g clip-path="url(#clip8_56_25201)">
<path d="M121.077 2.71993C121.418 1.89864 122.582 1.89864 122.923 2.71993L124.41 6.29546C124.554 6.6417 124.88 6.87827 125.254 6.90823L129.114 7.2177C130.001 7.28878 130.36 8.39529 129.685 8.97396L126.744 11.4932C126.459 11.7372 126.334 12.1199 126.421 12.4847L127.32 16.2515C127.526 17.1167 126.585 17.8006 125.826 17.3369L122.521 15.3184C122.201 15.1229 121.799 15.1229 121.479 15.3184L118.174 17.3369C117.415 17.8006 116.474 17.1167 116.68 16.2515L117.579 12.4847C117.666 12.1199 117.541 11.7372 117.256 11.4932L114.315 8.97396C113.64 8.39529 113.999 7.28878 114.886 7.2177L118.746 6.90823C119.12 6.87827 119.446 6.6417 119.59 6.29546L121.077 2.71993Z" fill="#F2F4F7"/>
<g clip-path="url(#clip9_56_25201)">
<path d="M121.077 2.71993C121.418 1.89864 122.582 1.89864 122.923 2.71993L124.41 6.29546C124.554 6.6417 124.88 6.87827 125.254 6.90823L129.114 7.2177C130.001 7.28878 130.36 8.39529 129.685 8.97396L126.744 11.4932C126.459 11.7372 126.334 12.1199 126.421 12.4847L127.32 16.2515C127.526 17.1167 126.585 17.8006 125.826 17.3369L122.521 15.3184C122.201 15.1229 121.799 15.1229 121.479 15.3184L118.174 17.3369C117.415 17.8006 116.474 17.1167 116.68 16.2515L117.579 12.4847C117.666 12.1199 117.541 11.7372 117.256 11.4932L114.315 8.97396C113.64 8.39529 113.999 7.28878 114.886 7.2177L118.746 6.90823C119.12 6.87827 119.446 6.6417 119.59 6.29546L121.077 2.71993Z" fill="url(#paint4_linear_56_25201)"/>
</g>
</g>
<defs>
<linearGradient id="paint0_linear_56_25201" x1="0.00224511" y1="10.5004" x2="20.0017" y2="10.5004" gradientUnits="userSpaceOnUse">
<stop stop-color="#FF3A31"/>
<stop offset="1" stop-color="#FFAE01"/>
</linearGradient>
<linearGradient id="paint1_linear_56_25201" x1="28.0022" y1="10.5004" x2="48.0017" y2="10.5004" gradientUnits="userSpaceOnUse">
<stop stop-color="#FF3A31"/>
<stop offset="1" stop-color="#FFAE01"/>
</linearGradient>
<linearGradient id="paint2_linear_56_25201" x1="56.0022" y1="10.5004" x2="76.0017" y2="10.5004" gradientUnits="userSpaceOnUse">
<stop stop-color="#FF3A31"/>
<stop offset="1" stop-color="#FFAE01"/>
</linearGradient>
<linearGradient id="paint3_linear_56_25201" x1="84.0022" y1="10.5004" x2="104.002" y2="10.5004" gradientUnits="userSpaceOnUse">
<stop stop-color="#FF3A31"/>
<stop offset="1" stop-color="#FFAE01"/>
</linearGradient>
<linearGradient id="paint4_linear_56_25201" x1="112.002" y1="10.5004" x2="132.002" y2="10.5004" gradientUnits="userSpaceOnUse">
<stop stop-color="#FF3A31"/>
<stop offset="1" stop-color="#FFAE01"/>
</linearGradient>
<clipPath id="clip0_56_25201">
<rect width="20" height="20" fill="white"/>
</clipPath>
<clipPath id="clip1_56_25201">
<rect width="20" height="20" fill="white"/>
</clipPath>
<clipPath id="clip2_56_25201">
<rect width="20" height="20" fill="white" transform="translate(28)"/>
</clipPath>
<clipPath id="clip3_56_25201">
<rect width="20" height="20" fill="white" transform="translate(28)"/>
</clipPath>
<clipPath id="clip4_56_25201">
<rect width="20" height="20" fill="white" transform="translate(56)"/>
</clipPath>
<clipPath id="clip5_56_25201">
<rect width="20" height="20" fill="white" transform="translate(56)"/>
</clipPath>
<clipPath id="clip6_56_25201">
<rect width="20" height="20" fill="white" transform="translate(84)"/>
</clipPath>
<clipPath id="clip7_56_25201">
<rect width="20" height="20" fill="white" transform="translate(84)"/>
</clipPath>
<clipPath id="clip8_56_25201">
<rect width="20" height="20" fill="white" transform="translate(112)"/>
</clipPath>
<clipPath id="clip9_56_25201">
<rect width="20" height="20" fill="white" transform="translate(112)"/>
</clipPath>
</defs>
</svg>
