<svg width="50" height="50" viewBox="0 0 50 50" fill="none" xmlns="http://www.w3.org/2000/svg">
<path d="M42.3239 7.69033C40.053 5.39691 37.3513 3.5748 34.374 2.32868C31.3967 1.08255 28.2026 0.436973 24.975 0.429029C21.7475 0.421086 18.5502 1.05093 15.5669 2.28239C12.5835 3.51384 9.87283 5.32263 7.59062 7.60484C5.30841 9.88705 3.49962 12.5977 2.26816 15.5811C1.03671 18.5644 0.406864 21.7617 0.414808 24.9893C0.422752 28.2168 1.06833 31.4109 2.31445 34.3882C3.56058 37.3655 5.38269 40.0672 7.67611 42.3382C9.94706 44.6316 12.6488 46.4537 15.626 47.6998C18.6033 48.9459 21.7975 49.5915 25.025 49.5994C28.2525 49.6074 31.4498 48.9775 34.4332 47.7461C37.4165 46.5146 40.1272 44.7059 42.4094 42.4236C44.6916 40.1414 46.5004 37.4308 47.7319 34.4474C48.9633 31.464 49.5932 28.2667 49.5852 25.0392C49.5773 21.8117 48.9317 18.6175 47.6856 15.6403C46.4395 12.663 44.6173 9.96128 42.3239 7.69033ZM4.00001 25.0142C3.99923 23.1556 4.24566 21.3052 4.73282 19.5116C5.53564 21.2397 6.70157 22.7327 7.49454 24.5056C8.51939 26.785 11.2713 26.1528 12.4864 28.15C13.5649 29.923 12.4131 32.1652 13.2203 34.0202C13.8066 35.3666 15.1891 35.6608 16.1428 36.6452C17.1174 37.6383 17.0966 38.9989 17.2453 40.2939C17.4132 41.8155 17.6854 43.3237 18.0602 44.8078C18.0602 44.8188 18.0602 44.8308 18.0689 44.8417C9.88439 41.9674 4.00001 34.1656 4.00001 25.0142ZM25 46.0142C23.8272 46.0139 22.6565 45.9158 21.5 45.7211C21.512 45.4247 21.5175 45.148 21.547 44.9555C21.8128 43.2164 22.6835 41.5157 23.8581 40.2141C25.0186 38.93 26.6089 38.0616 27.5889 36.6047C28.5492 35.1828 28.8369 33.2688 28.441 31.6074C27.858 29.153 24.5231 28.3338 22.725 27.0027C21.6914 26.2371 20.7716 25.0536 19.4142 24.9574C18.7886 24.9136 18.2647 25.0481 17.6445 24.8885C17.0758 24.7408 16.6295 24.4346 16.0236 24.5144C14.8916 24.6631 14.1774 25.8728 12.9611 25.7088C11.8072 25.5546 10.6183 24.2038 10.3558 23.1045C10.0189 21.6914 11.1367 21.2331 12.3344 21.1074C12.8342 21.0549 13.3953 20.998 13.8755 21.1817C14.5077 21.4158 14.8063 22.0349 15.3739 22.3477C16.4381 22.9317 16.6536 21.9988 16.4906 21.0538C16.2467 19.6385 15.9624 19.062 17.2245 18.0875C18.0995 17.416 18.8477 16.9303 18.7077 15.7239C18.6245 15.0152 18.2363 14.6947 18.5983 13.9892C18.8728 13.4522 19.6264 12.9677 20.1175 12.6472C21.3852 11.8203 25.548 11.8816 23.8472 9.5672C23.3474 8.88799 22.4253 7.67392 21.5503 7.50767C20.4566 7.30095 19.971 8.52158 19.2086 9.0597C18.4211 9.61642 16.8877 10.2486 16.0991 9.38783C15.0381 8.22955 16.8024 7.85002 17.1928 7.04064C17.3733 6.6633 17.1928 6.13939 16.8888 5.64611C17.2832 5.47986 17.6843 5.32564 18.0919 5.18345C18.3473 5.37212 18.6504 5.48576 18.9669 5.51158C19.6986 5.5597 20.3888 5.16376 21.0275 5.66251C21.7363 6.20939 22.247 6.90064 23.1877 7.07127C24.0977 7.23642 25.0613 6.70595 25.2866 5.77408C25.4233 5.20751 25.2866 4.60923 25.1553 4.02408C29.246 4.04761 33.2395 5.27268 36.6397 7.54705C36.421 7.46392 36.1595 7.47377 35.8369 7.62361C35.173 7.93205 34.2324 8.71736 34.1547 9.49611C34.0661 10.3799 35.3699 10.5045 35.9889 10.5045C36.9186 10.5045 37.8603 10.0889 37.5606 9.01486C37.4305 8.54892 37.2533 8.06439 36.9678 7.77127C37.6541 8.24744 38.3115 8.76387 38.9366 9.31783C38.9267 9.32767 38.9169 9.33642 38.907 9.34736C38.2771 10.0036 37.5453 10.5231 37.1144 11.3216C36.8103 11.8838 36.468 12.1506 35.8522 12.2961C35.5131 12.376 35.126 12.4055 34.8416 12.633C34.0497 13.2564 34.5003 14.7549 35.2506 15.2044C36.1989 15.772 37.6055 15.5052 38.3208 14.6947C38.8797 14.0603 39.2089 12.9589 40.2141 12.96C40.6566 12.9591 41.0817 13.1324 41.3975 13.4424C41.8131 13.8733 41.7311 14.2758 41.8197 14.8139C41.9761 15.7699 42.8194 15.2514 43.3324 14.7691C43.7063 15.4345 44.0437 16.1199 44.343 16.822C43.7786 17.6347 43.3302 18.5206 41.9728 17.5735C41.1602 17.0058 40.6603 16.1822 39.6399 15.9263C38.7485 15.7075 37.8352 15.935 36.9547 16.087C35.9539 16.261 34.7672 16.3375 34.0081 17.0955C33.2742 17.8261 32.886 18.8039 32.105 19.5378C30.5945 20.9597 29.9569 22.5117 30.9347 24.5221C31.8753 26.4547 33.843 27.5036 35.966 27.3658C38.0517 27.2269 40.2185 26.0172 40.1583 29.048C40.1364 30.121 40.3606 30.8636 40.6899 31.86C40.995 32.7788 40.9742 33.6691 41.0442 34.6174C41.1108 35.7278 41.2844 36.8292 41.5627 37.9063C39.6022 40.4304 37.0908 42.4731 34.2203 43.8783C31.3498 45.2835 28.196 46.0141 25 46.0142Z" fill="url(#paint0_linear_77_1353)"/>
<defs>
<linearGradient id="paint0_linear_77_1353" x1="0.420254" y1="25.0153" x2="49.5894" y2="25.0153" gradientUnits="userSpaceOnUse">
<stop stop-color="#FF3A31"/>
<stop offset="1" stop-color="#FFAE01"/>
</linearGradient>
</defs>
</svg>
