<svg width="48" height="40" viewBox="0 0 48 40" fill="none" xmlns="http://www.w3.org/2000/svg">
<path d="M35.6667 0.166626H12.3333C5.33334 0.166626 0.666672 3.66663 0.666672 11.8333V28.1666C0.666672 36.3333 5.33334 39.8333 12.3333 39.8333H35.6667C42.6667 39.8333 47.3333 36.3333 47.3333 28.1666V11.8333C47.3333 3.66663 42.6667 0.166626 35.6667 0.166626ZM10.5833 25.8333C10.5833 26.79 9.79 27.5833 8.83334 27.5833C7.87667 27.5833 7.08334 26.79 7.08334 25.8333V14.1666C7.08334 13.21 7.87667 12.4166 8.83334 12.4166C9.79 12.4166 10.5833 13.21 10.5833 14.1666V25.8333ZM24 27C20.1267 27 17 23.8733 17 20C17 16.1266 20.1267 13 24 13C27.8733 13 31 16.1266 31 20C31 23.8733 27.8733 27 24 27ZM40.9167 25.8333C40.9167 26.79 40.1233 27.5833 39.1667 27.5833C38.21 27.5833 37.4167 26.79 37.4167 25.8333V14.1666C37.4167 13.21 38.21 12.4166 39.1667 12.4166C40.1233 12.4166 40.9167 13.21 40.9167 14.1666V25.8333Z" fill="url(#paint0_linear_77_9425)"/>
<defs>
<linearGradient id="paint0_linear_77_9425" x1="0.67191" y1="20.0008" x2="47.3373" y2="20.0008" gradientUnits="userSpaceOnUse">
<stop stop-color="#FF3A31"/>
<stop offset="1" stop-color="#FFAE01"/>
</linearGradient>
</defs>
</svg>
