<svg width="115" height="32" viewBox="0 0 115 32" fill="none" xmlns="http://www.w3.org/2000/svg">
<g clip-path="url(#clip0_56_24808)">
<path d="M44.0557 22.7912C43.3404 22.7912 42.674 22.6626 42.06 22.4054C41.4461 22.1501 40.9246 21.7879 40.4935 21.3225C40.0643 20.857 39.7601 20.3029 39.5808 19.6582L41.6381 19.1565C41.8282 19.7052 42.1325 20.129 42.5508 20.4278C42.9673 20.7266 43.4744 20.8751 44.072 20.8751C44.5012 20.8751 44.8834 20.7918 45.2166 20.6234C45.5498 20.4568 45.816 20.2304 46.0134 19.9443C46.2108 19.6582 46.3086 19.3304 46.3086 18.9591C46.3086 18.5064 46.1438 18.1279 45.816 17.8236C45.4882 17.5194 44.9721 17.2894 44.2676 17.1337L43.6048 16.9906C42.3407 16.7153 41.4063 16.2626 40.8032 15.6305C40.2002 14.9985 39.8995 14.2288 39.8995 13.3215C39.8995 12.7728 40.0064 12.2694 40.2219 11.8094C40.4374 11.3494 40.7344 10.9492 41.1165 10.6105C41.4986 10.27 41.9459 10.0093 42.4585 9.82273C42.971 9.63801 43.5269 9.54565 44.1227 9.54565C44.8037 9.54565 45.4285 9.67061 46.0025 9.92053C46.5748 10.1723 47.0638 10.5272 47.4694 10.9854C47.8751 11.4454 48.1612 11.9905 48.3278 12.6225L46.2869 13.1241C46.0967 12.5881 45.8088 12.1752 45.4285 11.8891C45.0463 11.6029 44.5936 11.4599 44.0684 11.4599C43.6863 11.4599 43.3495 11.5341 43.0579 11.6844C42.7645 11.8329 42.5327 12.0358 42.3589 12.2929C42.1868 12.5501 42.0999 12.838 42.0999 13.1604C42.0999 13.6258 42.2719 13.9952 42.6196 14.2687C42.9655 14.544 43.4961 14.7649 44.2115 14.9315L44.8743 15.0746C47.3083 15.6233 48.5252 16.8584 48.5252 18.778C48.5252 19.363 48.4148 19.9026 48.1938 20.397C47.9729 20.8914 47.6596 21.3152 47.2539 21.6683C46.8483 22.0197 46.3738 22.2949 45.8305 22.4923C45.2872 22.6897 44.695 22.7875 44.0503 22.7875L44.0557 22.7912Z" fill="url(#paint0_linear_56_24808)"/>
<path d="M54.0597 22.791C53.1162 22.791 52.3773 22.5194 51.8412 21.9761C51.3052 21.4328 51.0353 20.6541 51.0353 19.6399V14.8263H49.3892V13.162H51.0353V9.99463H53.0926V13.162H55.8127V14.8263H53.0926V19.4262C53.0926 19.9278 53.1976 20.3118 53.4059 20.5798C53.6142 20.8478 53.922 20.9818 54.3277 20.9818C54.5432 20.9818 54.775 20.9492 55.0249 20.884C55.2748 20.8189 55.5085 20.7265 55.7222 20.607L56.1876 22.1644C55.9123 22.3564 55.5936 22.5085 55.2296 22.6208C54.8656 22.7349 54.4744 22.791 54.0579 22.791H54.0597Z" fill="url(#paint1_linear_56_24808)"/>
<path d="M60.5756 22.7912C60.0975 22.7912 59.6593 22.7206 59.2608 22.5757C58.8606 22.4326 58.5129 22.2298 58.2141 21.9672C57.9153 21.7046 57.6835 21.3949 57.5151 21.0363C57.3484 20.6778 57.2651 20.2848 57.2651 19.8556C57.2651 19.2598 57.4227 18.7364 57.7396 18.2891C58.0547 17.8418 58.5002 17.4923 59.0725 17.2423C59.6448 16.9924 60.313 16.8675 61.0773 16.8675C61.4938 16.8675 61.894 16.9055 62.2761 16.9834C62.6582 17.0612 63.0222 17.1717 63.3681 17.3148V16.7244C63.3681 16.3079 63.2903 15.9403 63.1363 15.6233C62.9806 15.3082 62.7596 15.0601 62.4735 14.8808C62.1874 14.7015 61.8415 14.6128 61.4358 14.6128C61.0066 14.6128 60.6191 14.7269 60.2732 14.9533C59.9273 15.1796 59.6701 15.4966 59.5035 15.9022L57.6056 15.473C57.7487 14.9478 58.0076 14.4951 58.3843 14.113C58.761 13.7309 59.2138 13.432 59.7444 13.2184C60.275 13.0028 60.8509 12.896 61.472 12.896C62.057 12.896 62.5912 12.992 63.0729 13.1821C63.5565 13.3741 63.9712 13.6421 64.3171 13.988C64.663 14.3339 64.931 14.745 65.123 15.2231C65.3131 15.6994 65.4091 16.2318 65.4091 16.815V22.5232H63.5293L63.4569 21.2881C63.207 21.7408 62.8303 22.1048 62.3304 22.3801C61.8288 22.6554 61.2439 22.7912 60.5774 22.7912H60.5756ZM59.3405 19.7669C59.3405 20.0294 59.413 20.2649 59.556 20.4731C59.6991 20.6814 59.8983 20.8462 60.1555 20.9657C60.4126 21.0852 60.7132 21.145 61.0591 21.145C61.501 21.145 61.894 21.049 62.2399 20.8589C62.5858 20.6687 62.8593 20.4079 63.0639 20.0801C63.2667 19.7524 63.3681 19.3793 63.3681 18.961V18.7455C63.0585 18.6151 62.7379 18.51 62.4101 18.4322C62.0823 18.3543 61.7455 18.3163 61.3996 18.3163C60.7784 18.3163 60.2804 18.4485 59.9055 18.7092C59.5307 18.9718 59.3423 19.325 59.3423 19.765L59.3405 19.7669Z" fill="url(#paint2_linear_56_24808)"/>
<path d="M67.6257 22.5232V13.164H69.5055L69.5943 14.7034C69.8333 14.1782 70.1629 13.7707 70.5867 13.4773C71.0104 13.1839 71.5085 13.0391 72.0807 13.0391C72.26 13.0391 72.4321 13.0517 72.6005 13.0753C72.7689 13.0988 72.9156 13.1405 73.0478 13.2002L72.816 15.205C72.6838 15.1579 72.5462 15.1235 72.4049 15.1072C72.2618 15.0891 72.1188 15.08 71.9757 15.08C71.2604 15.08 70.699 15.3191 70.2933 15.7954C69.8876 16.2735 69.6848 16.9345 69.6848 17.782V22.525H67.6275L67.6257 22.5232Z" fill="url(#paint3_linear_56_24808)"/>
<path d="M109.257 22.7911C108.648 22.7911 108.085 22.6897 107.565 22.4868C107.045 22.284 106.605 21.9943 106.241 21.6194C105.877 21.2445 105.618 20.799 105.463 20.2865L107.324 19.803C107.48 20.2086 107.73 20.5255 108.076 20.7519C108.422 20.9783 108.822 21.0924 109.275 21.0924C109.727 21.0924 110.122 20.9819 110.419 20.761C110.716 20.54 110.867 20.2575 110.867 19.9116C110.867 19.6128 110.747 19.3629 110.508 19.1601C110.269 18.9572 109.881 18.8087 109.345 18.7128L108.755 18.6059C107.754 18.4266 106.998 18.1043 106.491 17.6388C105.984 17.1734 105.731 16.5776 105.731 15.8496C105.731 15.2647 105.881 14.7521 106.178 14.3103C106.475 13.8684 106.888 13.5225 107.413 13.2726C107.938 13.0227 108.541 12.8977 109.22 12.8977C109.805 12.8977 110.341 12.9991 110.83 13.2019C111.319 13.4048 111.73 13.6909 112.065 14.0604C112.399 14.4298 112.638 14.8662 112.781 15.3661L110.937 15.8134C110.794 15.4313 110.571 15.1306 110.267 14.9097C109.963 14.6888 109.608 14.5783 109.202 14.5783C108.797 14.5783 108.438 14.6833 108.165 14.8916C107.891 15.0999 107.754 15.3661 107.754 15.6884C107.754 15.9637 107.875 16.1901 108.119 16.3675C108.364 16.5468 108.779 16.6899 109.363 16.7967L109.954 16.9036C110.908 17.0702 111.642 17.3998 112.156 17.8888C112.669 18.3777 112.926 18.9862 112.926 19.7142C112.926 20.1561 112.837 20.5636 112.658 20.9403C112.478 21.3151 112.225 21.6447 111.897 21.9236C111.567 22.2043 111.182 22.4198 110.733 22.5683C110.285 22.7168 109.793 22.7929 109.257 22.7929V22.7911Z" fill="url(#paint4_linear_56_24808)"/>
<path d="M77.1609 22.523L74.0479 13.1638H76.1957L78.1823 20.0003L80.2758 13.1638H82.1194L84.1948 20.0003L86.2176 13.1638H88.293L85.1618 22.523H83.2295L81.1722 15.7227L79.0969 22.523H77.1646H77.1609Z" fill="url(#paint5_linear_56_24808)"/>
<path d="M94.0522 22.7912C93.3604 22.7912 92.7248 22.668 92.1471 22.4236C91.5694 22.1791 91.0641 21.835 90.6349 21.3949C90.2057 20.953 89.8743 20.4315 89.6425 19.8284C89.4089 19.2254 89.293 18.5607 89.293 17.8327C89.293 17.1047 89.4089 16.4781 89.6425 15.8823C89.8743 15.2865 90.1966 14.7631 90.6095 14.3176C91.0206 13.8703 91.5078 13.5208 92.0674 13.2709C92.627 13.021 93.2355 12.896 93.8928 12.896C94.5502 12.896 95.1479 13.0119 95.6911 13.2455C96.2326 13.4791 96.7053 13.8087 97.1037 14.2397C97.5039 14.6689 97.8118 15.1796 98.0255 15.77C98.241 16.3604 98.3479 17.0142 98.3479 17.7295V18.338H91.4227C91.4824 18.8867 91.6273 19.3612 91.8609 19.7614C92.0946 20.1616 92.3952 20.4677 92.7646 20.6832C93.1341 20.8987 93.5633 21.0056 94.0522 21.0056C95.0301 21.0056 95.7944 20.5691 96.3431 19.698L98.1505 20.3971C97.935 20.886 97.6235 21.3134 97.2106 21.6756C96.7995 22.0396 96.3214 22.3167 95.7799 22.5069C95.2366 22.697 94.6607 22.793 94.0522 22.793V22.7912ZM93.891 14.5585C93.4727 14.5585 93.1015 14.6545 92.7719 14.8446C92.4441 15.0366 92.167 15.3046 91.9406 15.6505C91.7142 15.9964 91.5585 16.4021 91.4752 16.8675H96.2C96.1276 16.4021 95.99 15.9964 95.7889 15.6505C95.5861 15.3046 95.3199 15.0366 94.9921 14.8446C94.6625 14.6545 94.2967 14.5585 93.891 14.5585Z" fill="url(#paint6_linear_56_24808)"/>
<path d="M99.3479 22.5231V9.20874H101.405V22.5231H99.3479Z" fill="url(#paint7_linear_56_24808)"/>
<path d="M102.405 22.5231V9.20874H104.463V22.5231H102.405Z" fill="url(#paint8_linear_56_24808)"/>
<path d="M19.028 1.56284C17.5448 -0.521598 14.4589 -0.521598 12.9757 1.56284C11.4074 3.76861 9.65802 5.83675 7.74744 7.74371C5.84047 9.65429 3.77053 11.4037 1.56113 12.9738C-0.523307 14.4552 -0.523307 17.5429 1.56113 19.0261C3.77053 20.5962 5.83866 22.3474 7.74744 24.2562C9.65621 26.1632 11.4056 28.2295 12.9757 30.4371C14.4571 32.5215 17.5448 32.5215 19.028 30.4371C20.5981 28.2295 22.3475 26.1632 24.2581 24.2562C26.1651 22.3456 28.2332 20.5962 30.4408 19.0261C32.5253 17.5447 32.5234 14.457 30.4408 12.9756C26.0275 9.83539 22.1683 5.97801 19.028 1.56465V1.56284ZM20.4804 24.1874H11.498C9.45338 24.1874 7.79633 22.5304 7.79633 20.4858V11.5033C7.79633 9.45871 9.45338 7.80166 11.498 7.80166H20.4804C22.525 7.80166 24.1821 9.45871 24.1821 11.5033V20.4858C24.1821 22.5304 22.525 24.1874 20.4804 24.1874Z" fill="url(#paint9_linear_56_24808)"/>
<path d="M21.9491 15.3661C22.4109 15.6632 22.4109 16.335 21.9491 16.632C20.8824 17.3148 19.8954 18.1098 19.0099 19.0044C18.1134 19.89 17.3202 20.8751 16.6375 21.9418C16.3405 22.4036 15.6668 22.4036 15.3716 21.9418C14.6889 20.8751 13.8957 19.8864 13.0065 18.9972C12.1173 18.108 11.1285 17.3148 10.0618 16.632C9.59821 16.3368 9.59821 15.6613 10.0618 15.3661C11.1285 14.6834 12.1173 13.8902 13.0065 13.001C13.8975 12.11 14.6889 11.123 15.3716 10.0545C15.6668 9.59275 16.3405 9.59094 16.6375 10.0545C18.0048 12.1879 19.8176 13.9989 21.9491 15.3661Z" fill="url(#paint10_linear_56_24808)"/>
</g>
<defs>
<linearGradient id="paint0_linear_56_24808" x1="39.5818" y1="16.1687" x2="48.526" y2="16.1687" gradientUnits="userSpaceOnUse">
<stop stop-color="#FF3A31"/>
<stop offset="1" stop-color="#FFAE01"/>
</linearGradient>
<linearGradient id="paint1_linear_56_24808" x1="49.3899" y1="16.3931" x2="56.1881" y2="16.3931" gradientUnits="userSpaceOnUse">
<stop stop-color="#FF3A31"/>
<stop offset="1" stop-color="#FFAE01"/>
</linearGradient>
<linearGradient id="paint2_linear_56_24808" x1="57.2661" y1="17.8438" x2="65.4098" y2="17.8438" gradientUnits="userSpaceOnUse">
<stop stop-color="#FF3A31"/>
<stop offset="1" stop-color="#FFAE01"/>
</linearGradient>
<linearGradient id="paint3_linear_56_24808" x1="67.6263" y1="17.7822" x2="73.0483" y2="17.7822" gradientUnits="userSpaceOnUse">
<stop stop-color="#FF3A31"/>
<stop offset="1" stop-color="#FFAE01"/>
</linearGradient>
<linearGradient id="paint4_linear_56_24808" x1="105.463" y1="17.8455" x2="112.926" y2="17.8455" gradientUnits="userSpaceOnUse">
<stop stop-color="#FF3A31"/>
<stop offset="1" stop-color="#FFAE01"/>
</linearGradient>
<linearGradient id="paint5_linear_56_24808" x1="74.0495" y1="17.8436" x2="88.2942" y2="17.8436" gradientUnits="userSpaceOnUse">
<stop stop-color="#FF3A31"/>
<stop offset="1" stop-color="#FFAE01"/>
</linearGradient>
<linearGradient id="paint6_linear_56_24808" x1="89.294" y1="17.8447" x2="98.3486" y2="17.8447" gradientUnits="userSpaceOnUse">
<stop stop-color="#FF3A31"/>
<stop offset="1" stop-color="#FFAE01"/>
</linearGradient>
<linearGradient id="paint7_linear_56_24808" x1="99.3481" y1="15.8662" x2="101.405" y2="15.8662" gradientUnits="userSpaceOnUse">
<stop stop-color="#FF3A31"/>
<stop offset="1" stop-color="#FFAE01"/>
</linearGradient>
<linearGradient id="paint8_linear_56_24808" x1="102.406" y1="15.8662" x2="104.463" y2="15.8662" gradientUnits="userSpaceOnUse">
<stop stop-color="#FF3A31"/>
<stop offset="1" stop-color="#FFAE01"/>
</linearGradient>
<linearGradient id="paint9_linear_56_24808" x1="0.00139555" y1="16.0006" x2="32.0062" y2="16.0006" gradientUnits="userSpaceOnUse">
<stop stop-color="#FF3A31"/>
<stop offset="1" stop-color="#FFAE01"/>
</linearGradient>
<linearGradient id="paint10_linear_56_24808" x1="9.71552" y1="15.9981" x2="22.2965" y2="15.9981" gradientUnits="userSpaceOnUse">
<stop stop-color="#FF3A31"/>
<stop offset="1" stop-color="#FFAE01"/>
</linearGradient>
<clipPath id="clip0_56_24808">
<rect width="114.262" height="32" fill="white"/>
</clipPath>
</defs>
</svg>
