<svg width="48" height="48" viewBox="0 0 48 48" fill="none" xmlns="http://www.w3.org/2000/svg">
<rect width="48.0013" height="48" rx="24" fill="#FFF9F5"/>
<path d="M23.635 34.8002L23.6353 34.8007C23.8039 35.0643 24.1918 35.0691 24.3661 34.7991C25.7063 32.7054 27.2644 30.7697 29.0266 29.0282C30.7676 27.27 32.7066 25.7086 34.8004 24.3683M23.635 34.8002L35.3406 25.2098M23.635 34.8002C22.2943 32.7055 20.736 30.7627 18.9879 29.0147C17.2398 27.2666 15.297 25.7083 13.2024 24.3676L13.2004 24.3663C12.9332 24.1962 12.9332 23.8086 13.2004 23.6385L13.2024 23.6372C15.297 22.2965 17.2398 20.7381 18.9879 18.9901C20.7395 17.2385 22.2945 15.299 23.6353 13.2006C23.806 12.9336 24.1933 12.9324 24.3656 13.2015L24.3657 13.2016C27.052 17.3928 30.6132 20.9504 34.8001 23.6363M23.635 34.8002L35.3406 22.7949M34.8004 24.3683C34.8007 24.368 34.8011 24.3678 34.8015 24.3676L35.3406 25.2098M34.8004 24.3683C34.8001 24.3684 34.7999 24.3686 34.7996 24.3688L35.3406 25.2098M34.8004 24.3683C35.0683 24.1952 35.0683 23.8092 34.8001 23.6363M35.3406 25.2098C36.2215 24.6432 36.2215 23.3615 35.3406 22.7949M34.8001 23.6363C34.8003 23.6364 34.8005 23.6365 34.8006 23.6366L35.3406 22.7949M34.8001 23.6363C34.8 23.6362 34.7998 23.6361 34.7996 23.636L35.3406 22.7949" fill="url(#paint0_linear_89_83175)" stroke="url(#paint1_linear_89_83175)" stroke-width="2"/>
<defs>
<linearGradient id="paint0_linear_89_83175" x1="12.0027" y1="24.0005" x2="36.0033" y2="24.0005" gradientUnits="userSpaceOnUse">
<stop stop-color="#FF3A31"/>
<stop offset="1" stop-color="#FFAE01"/>
</linearGradient>
<linearGradient id="paint1_linear_89_83175" x1="12.0027" y1="24.0005" x2="36.0033" y2="24.0005" gradientUnits="userSpaceOnUse">
<stop stop-color="#FF3A31"/>
<stop offset="1" stop-color="#FFAE01"/>
</linearGradient>
</defs>
</svg>
