<svg width="48" height="48" viewBox="0 0 48 48" fill="none" xmlns="http://www.w3.org/2000/svg">
<rect width="48" height="48" rx="24" fill="#FFF9F5"/>
<circle cx="24" cy="24" r="10.5" fill="#FBB893"/>
<circle cx="24" cy="24" r="7.5" fill="#FFE4CC"/>
<g clip-path="url(#clip0_88_82729)">
<path d="M26.3762 25.2898C26.3762 23.9479 25.4304 23.5632 24.4074 23.3466L23.8651 23.2368C23.0633 23.0791 23.0014 22.8466 23.0014 22.5352C23.0014 22.1312 23.3655 21.8897 23.9754 21.8897C24.6976 21.8897 24.8827 22.2526 24.9595 22.5251L24.9668 22.5477C25.0577 22.7854 25.2687 22.9271 25.5321 22.9271C25.6003 22.9271 25.6616 22.9167 25.7075 22.9074C25.9901 22.8512 26.187 22.6262 26.187 22.3597C26.187 22.2936 26.1751 22.2281 26.151 22.1644C26.0062 21.6986 25.5992 20.9656 24.4715 20.7982V19.9995C24.4715 19.3342 23.4295 19.3342 23.4295 19.9995V20.803C22.2181 20.9926 21.7721 21.8166 21.7721 22.5349C21.7721 23.8419 22.6822 24.2063 23.5712 24.3896L24.1578 24.5142C24.9931 24.6841 25.1403 24.9019 25.1403 25.2965C25.1403 25.7787 24.7327 26.0662 24.0492 26.0662C23.162 26.0662 22.9812 25.6666 22.8602 25.2182C22.7895 24.97 22.5652 24.8101 22.2886 24.8101C22.2283 24.8101 22.1799 24.8181 22.1215 24.8281L22.104 24.8315C21.8179 24.8994 21.626 25.1247 21.626 25.3917C21.626 25.4425 21.635 25.4857 21.6423 25.5205L21.6513 25.5605C21.78 25.9954 22.064 26.9454 23.4808 27.1573V27.9933C23.4808 28.3261 23.7427 28.5004 24.0017 28.5004C24.2607 28.5004 24.5229 28.3261 24.5229 27.9933V27.1719C25.6479 27.0254 26.3773 26.3066 26.3773 25.2899" fill="url(#paint0_linear_88_82729)"/>
</g>
<defs>
<linearGradient id="paint0_linear_88_82729" x1="21.6265" y1="24.0006" x2="26.3777" y2="24.0006" gradientUnits="userSpaceOnUse">
<stop stop-color="#FF3A31"/>
<stop offset="1" stop-color="#FFAE01"/>
</linearGradient>
<clipPath id="clip0_88_82729">
<rect width="9" height="9" fill="white" transform="translate(19.5 19.5)"/>
</clipPath>
</defs>
</svg>
