<svg width="48" height="48" viewBox="0 0 48 48" fill="none" xmlns="http://www.w3.org/2000/svg">
<rect width="48" height="48" rx="24" fill="#FFF9F5"/>
<path d="M28 20H20V28H28V20Z" fill="url(#paint0_linear_88_82731)"/>
<path d="M14 31C14 32.65 15.35 34 17 34C18.65 34 20 32.65 20 31V28H17C15.35 28 14 29.35 14 31Z" fill="#FF8B10"/>
<path d="M17 14C15.35 14 14 15.35 14 17C14 18.65 15.35 20 17 20H20V17C20 15.35 18.65 14 17 14Z" fill="#FBB893"/>
<path d="M34 17C34 15.35 32.65 14 31 14C29.35 14 28 15.35 28 17V20H31C32.65 20 34 18.65 34 17Z" fill="#FBB893"/>
<path d="M31 28H28V31C28 32.65 29.35 34 31 34C32.65 34 34 32.65 34 31C34 29.35 32.65 28 31 28Z" fill="#FFE4CC"/>
<defs>
<linearGradient id="paint0_linear_88_82731" x1="20.0009" y1="24.0002" x2="28.0007" y2="24.0002" gradientUnits="userSpaceOnUse">
<stop stop-color="#FF3A31"/>
<stop offset="1" stop-color="#FFAE01"/>
</linearGradient>
</defs>
</svg>
