<svg width="48" height="48" viewBox="0 0 48 48" fill="none" xmlns="http://www.w3.org/2000/svg">
<rect width="48" height="48" rx="24" fill="#FFF9F5"/>
<path fill-rule="evenodd" clip-rule="evenodd" d="M19 17H29C30.1046 17 31 17.8954 31 19V29C31 29.7979 30.5327 30.4867 29.8569 30.8076C29.9504 31.1897 30 31.5891 30 32V32.874C29.9999 32.874 29.9998 32.874 29.9997 32.8741C31.7251 32.4301 33 30.864 33 29V19C33 16.7909 31.2091 15 29 15H19C16.7909 15 15 16.7909 15 19V29C15 30.8638 16.2748 32.4299 18 32.874V32C18 31.5891 18.0496 31.1897 18.1431 30.8076C17.4673 30.4867 17 29.7979 17 29V19C17 17.8954 17.8954 17 19 17Z" fill="#FBB893"/>
<path fill-rule="evenodd" clip-rule="evenodd" d="M27.5 22.5C27.5 24.433 25.933 26 24 26C22.067 26 20.5 24.433 20.5 22.5C20.5 20.567 22.067 19 24 19C25.933 19 27.5 20.567 27.5 22.5ZM29 33C29.3453 33 29.6804 32.9562 30 32.874V32C30 29.2386 27.7614 27 25 27H23C20.2386 27 18 29.2386 18 32V32.874C18.3196 32.9562 18.6547 33 19 33H29Z" fill="url(#paint0_linear_89_83177)"/>
<defs>
<linearGradient id="paint0_linear_89_83177" x1="18.0013" y1="26.0003" x2="30.001" y2="26.0003" gradientUnits="userSpaceOnUse">
<stop stop-color="#FF3A31"/>
<stop offset="1" stop-color="#FFAE01"/>
</linearGradient>
</defs>
</svg>
