<svg width="25" height="25" viewBox="0 0 25 25" fill="none" xmlns="http://www.w3.org/2000/svg">
<path d="M23.9104 11.7461C24.7914 12.3127 24.7914 13.5944 23.9104 14.161C21.8755 15.4635 19.9927 16.9801 18.3033 18.6868C16.5931 20.3762 15.0799 22.2556 13.7775 24.2904C13.2109 25.1714 11.9257 25.1714 11.3626 24.2904C10.0601 22.2556 8.54693 20.3693 6.85063 18.673C5.15433 16.9767 3.26802 15.4635 1.23314 14.161C0.348718 13.5979 0.348718 12.3092 1.23314 11.7461C3.26802 10.4436 5.15433 8.93044 6.85063 7.23414C8.55039 5.53438 10.0601 3.65152 11.3626 1.6132C11.9257 0.732225 13.2109 0.72877 13.7775 1.6132C16.3859 5.68294 19.8441 9.13773 23.9104 11.7461Z" fill="url(#paint0_linear_61_48743)"/>
<defs>
<linearGradient id="paint0_linear_61_48743" x1="0.572518" y1="12.9517" x2="24.5731" y2="12.9517" gradientUnits="userSpaceOnUse">
<stop stop-color="#FF3A31"/>
<stop offset="1" stop-color="#FFAE01"/>
</linearGradient>
</defs>
</svg>
