<svg width="49" height="49" viewBox="0 0 49 49" fill="none" xmlns="http://www.w3.org/2000/svg">
<path d="M42.3799 16.9507C43.4408 16.9507 44.4582 17.3722 45.2083 18.1223C45.9585 18.8724 46.3799 19.8899 46.3799 20.9507V28.9507C46.3799 30.0116 45.9585 31.029 45.2083 31.7792C44.4582 32.5293 43.4408 32.9507 42.3799 32.9507H40.2559C39.7683 36.8173 37.8864 40.3731 34.9634 42.9507C32.0403 45.5284 28.2771 46.9507 24.3799 46.9507V42.9507C27.5625 42.9507 30.6147 41.6864 32.8652 39.436C35.1156 37.1856 36.3799 34.1333 36.3799 30.9507V18.9507C36.3799 15.7681 35.1156 12.7159 32.8652 10.4654C30.6147 8.21501 27.5625 6.95073 24.3799 6.95073C21.1973 6.95073 18.145 8.21501 15.8946 10.4654C13.6442 12.7159 12.3799 15.7681 12.3799 18.9507V32.9507H6.37988C5.31902 32.9507 4.3016 32.5293 3.55146 31.7792C2.80131 31.029 2.37988 30.0116 2.37988 28.9507V20.9507C2.37988 19.8899 2.80131 18.8724 3.55146 18.1223C4.3016 17.3722 5.31902 16.9507 6.37988 16.9507H8.50388C8.99194 13.0845 10.874 9.52927 13.797 6.95208C16.72 4.37489 20.483 2.95288 24.3799 2.95288C28.2768 2.95288 32.0397 4.37489 34.9627 6.95208C37.8857 9.52927 39.7678 13.0845 40.2559 16.9507H42.3799ZM15.8999 32.5207L18.0199 29.1287C19.926 30.3228 22.1306 30.9544 24.3799 30.9507C26.6292 30.9544 28.8337 30.3228 30.7399 29.1287L32.8599 32.5207C30.3184 34.113 27.379 34.9553 24.3799 34.9507C21.3808 34.9553 18.4414 34.113 15.8999 32.5207Z" fill="url(#paint0_linear_56_35531)"/>
<defs>
<linearGradient id="paint0_linear_56_35531" x1="2.38482" y1="24.9527" x2="46.3836" y2="24.9527" gradientUnits="userSpaceOnUse">
<stop stop-color="#FF3A31"/>
<stop offset="1" stop-color="#FFAE01"/>
</linearGradient>
</defs>
</svg>
