<svg width="49" height="49" viewBox="0 0 49 49" fill="none" xmlns="http://www.w3.org/2000/svg">
<path d="M24.5796 4.43091C13.5336 4.43091 4.57959 13.3849 4.57959 24.4309C4.57959 34.4129 11.8936 42.6869 21.4556 44.1889V30.2109H16.3756V24.4309H21.4556V20.0249C21.4556 15.0129 24.4396 12.2449 29.0096 12.2449C31.1976 12.2449 33.4856 12.6349 33.4856 12.6349V17.5549H30.9656C28.4796 17.5549 27.7056 19.0969 27.7056 20.6789V24.4309H33.2516L32.3656 30.2109H27.7056V44.1889C37.2656 42.6889 44.5796 34.4109 44.5796 24.4309C44.5796 13.3849 35.6256 4.43091 24.5796 4.43091Z" fill="url(#paint0_linear_61_48755)"/>
<defs>
<linearGradient id="paint0_linear_61_48755" x1="4.58408" y1="24.3107" x2="44.583" y2="24.3107" gradientUnits="userSpaceOnUse">
<stop stop-color="#FF3A31"/>
<stop offset="1" stop-color="#FFAE01"/>
</linearGradient>
</defs>
</svg>
