<svg width="49" height="49" viewBox="0 0 49 49" fill="none" xmlns="http://www.w3.org/2000/svg">
<path d="M37.2496 37.1089H31.9196V28.7549C31.9196 26.7629 31.8796 24.1989 29.1396 24.1989C26.3616 24.1989 25.9376 26.3669 25.9376 28.6089V37.1089H20.6056V19.9309H25.7256V22.2709H25.7956C26.5116 20.9229 28.2516 19.4969 30.8516 19.4969C36.2516 19.4969 37.2516 23.0529 37.2516 27.6789V37.1089H37.2496ZM14.5856 17.5809C14.1787 17.5814 13.7757 17.5016 13.3997 17.3461C13.0237 17.1906 12.6821 16.9624 12.3945 16.6746C12.1069 16.3868 11.8789 16.045 11.7236 15.6689C11.5683 15.2928 11.4888 14.8898 11.4896 14.4829C11.49 13.8706 11.6719 13.2721 12.0125 12.7632C12.353 12.2543 12.8368 11.8578 13.4026 11.6238C13.9685 11.3898 14.5911 11.3289 15.1916 11.4488C15.792 11.5686 16.3435 11.8639 16.7762 12.2971C17.2089 12.7304 17.5034 13.2822 17.6225 13.8829C17.7416 14.4835 17.6798 15.106 17.4452 15.6715C17.2105 16.2371 16.8133 16.7204 16.304 17.0602C15.7946 17.4001 15.1959 17.5813 14.5836 17.5809H14.5856ZM17.2576 37.1089H11.9116V19.9309H17.2596V37.1089H17.2576ZM39.9196 6.43091H9.23759C7.76559 6.43091 6.57959 7.59091 6.57959 9.02491V39.8369C6.57959 41.2709 7.76759 42.4309 9.23559 42.4309H39.9116C41.3796 42.4309 42.5796 41.2709 42.5796 39.8369V9.02491C42.5796 7.59091 41.3796 6.43091 39.9116 6.43091H39.9176H39.9196Z" fill="url(#paint0_linear_61_48752)"/>
<defs>
<linearGradient id="paint0_linear_61_48752" x1="6.58363" y1="24.4317" x2="42.5826" y2="24.4317" gradientUnits="userSpaceOnUse">
<stop stop-color="#FF3A31"/>
<stop offset="1" stop-color="#FFAE01"/>
</linearGradient>
</defs>
</svg>
