<svg width="49" height="49" viewBox="0 0 49 49" fill="none" xmlns="http://www.w3.org/2000/svg">
<path d="M37.7496 17.9367C39.7336 18.903 41.9807 19.189 44.1436 18.7507V40.9507C44.1436 41.4811 43.9328 41.9898 43.5578 42.3649C43.1827 42.74 42.674 42.9507 42.1436 42.9507H6.14355C5.61312 42.9507 5.10441 42.74 4.72934 42.3649C4.35427 41.9898 4.14355 41.4811 4.14355 40.9507V8.95068C4.14355 8.42025 4.35427 7.91154 4.72934 7.53647C5.10441 7.1614 5.61312 6.95068 6.14355 6.95068H32.3436C32.2116 7.59668 32.1436 8.26668 32.1436 8.95068C32.1402 11.3268 32.9865 13.6258 34.5296 15.4327L24.2656 24.3167L11.4376 13.4267L8.84956 16.4747L24.2896 29.5847L37.7496 17.9367ZM42.1436 14.9507C41.3556 14.9507 40.5754 14.7955 39.8475 14.494C39.1195 14.1924 38.4581 13.7505 37.9009 13.1933C37.3438 12.6362 36.9018 11.9747 36.6003 11.2468C36.2987 10.5188 36.1436 9.73862 36.1436 8.95068C36.1436 8.16275 36.2987 7.38254 36.6003 6.65458C36.9018 5.92663 37.3438 5.26519 37.9009 4.70804C38.4581 4.15089 39.1195 3.70893 39.8475 3.40741C40.5754 3.10588 41.3556 2.95068 42.1436 2.95068C43.7349 2.95068 45.261 3.58282 46.3862 4.70804C47.5114 5.83326 48.1436 7.35938 48.1436 8.95068C48.1436 10.542 47.5114 12.0681 46.3862 13.1933C45.261 14.3185 43.7349 14.9507 42.1436 14.9507Z" fill="url(#paint0_linear_56_35537)"/>
<defs>
<linearGradient id="paint0_linear_56_35537" x1="4.14849" y1="22.9515" x2="48.1473" y2="22.9515" gradientUnits="userSpaceOnUse">
<stop stop-color="#FF3A31"/>
<stop offset="1" stop-color="#FFAE01"/>
</linearGradient>
</defs>
</svg>
