<svg width="49" height="49" viewBox="0 0 49 49" fill="none" xmlns="http://www.w3.org/2000/svg">
<path d="M44.9072 29.0387C42.8448 28.0924 40.5564 27.7502 38.3074 28.0519C36.0584 28.3536 33.941 29.2868 32.2009 30.7432C30.4608 32.1996 29.1693 34.1195 28.4762 36.2802C27.7832 38.4409 27.7169 40.7538 28.2852 42.9507H6.90723C6.37679 42.9507 5.86809 42.74 5.49301 42.3649C5.11794 41.9898 4.90723 41.4811 4.90723 40.9507V8.95068C4.90723 8.42025 5.11794 7.91154 5.49301 7.53647C5.86809 7.1614 6.37679 6.95068 6.90723 6.95068H42.9072C43.4377 6.95068 43.9464 7.1614 44.3214 7.53647C44.6965 7.91154 44.9072 8.42025 44.9072 8.95068V29.0387ZM25.0272 24.3167L12.2032 13.4267L9.61323 16.4747L25.0532 29.5847L40.2152 16.4647L37.5992 13.4387L25.0292 24.3167H25.0272ZM39.9072 44.4507L34.6172 47.2307L35.6272 41.3407L31.3472 37.1687L37.2612 36.3087L39.9072 30.9507L42.5532 36.3107L48.4672 37.1707L44.1872 41.3407L45.1972 47.2327L39.9072 44.4507Z" fill="url(#paint0_linear_56_35545)"/>
<defs>
<linearGradient id="paint0_linear_56_35545" x1="4.91212" y1="27.0925" x2="48.4709" y2="27.0925" gradientUnits="userSpaceOnUse">
<stop stop-color="#FF3A31"/>
<stop offset="1" stop-color="#FFAE01"/>
</linearGradient>
</defs>
</svg>
