<svg width="49" height="49" viewBox="0 0 49 49" fill="none" xmlns="http://www.w3.org/2000/svg">
<path d="M44.9037 11.7429C43.3768 12.4183 41.7576 12.8618 40.0997 13.0589C41.8472 12.0138 43.1551 10.3689 43.7797 8.43088C42.1397 9.40688 40.3417 10.0909 38.4677 10.4609C37.2089 9.11404 35.5404 8.22081 33.7216 7.92005C31.9028 7.6193 30.0356 7.92787 28.4102 8.79779C26.7849 9.66771 25.4925 11.0503 24.7339 12.7305C23.9754 14.4107 23.7932 16.2944 24.2157 18.0889C20.8899 17.9222 17.6364 17.0579 14.6663 15.5522C11.6962 14.0465 9.07595 11.933 6.9757 9.34888C6.23228 10.6258 5.84161 12.0773 5.8437 13.5549C5.8437 16.4549 7.3197 19.0169 9.5637 20.5169C8.23571 20.4751 6.93696 20.1164 5.7757 19.4709V19.5749C5.7761 21.5063 6.44443 23.3781 7.66739 24.873C8.89035 26.3679 10.5927 27.3938 12.4857 27.7769C11.2529 28.111 9.96031 28.1602 8.7057 27.9209C9.23943 29.5834 10.2797 31.0373 11.6809 32.0791C13.082 33.1209 14.774 33.6985 16.5197 33.7309C14.7847 35.0935 12.798 36.1009 10.6735 36.6952C8.54886 37.2896 6.32795 37.4594 4.1377 37.1949C7.96109 39.6538 12.4119 40.9591 16.9577 40.9549C32.3437 40.9549 40.7577 28.2089 40.7577 17.1549C40.7577 16.7949 40.7477 16.4309 40.7317 16.0749C42.3694 14.8912 43.7829 13.4249 44.9057 11.7449L44.9037 11.7429Z" fill="url(#paint0_linear_61_48749)"/>
<defs>
<linearGradient id="paint0_linear_61_48749" x1="4.14227" y1="24.3821" x2="44.9091" y2="24.3821" gradientUnits="userSpaceOnUse">
<stop stop-color="#FF3A31"/>
<stop offset="1" stop-color="#FFAE01"/>
</linearGradient>
</defs>
</svg>
