<svg width="129" height="28" viewBox="0 0 129 28" fill="none" xmlns="http://www.w3.org/2000/svg">
<path fill-rule="evenodd" clip-rule="evenodd" d="M15.792 1.20153L3.3916 6.18328C2.70202 6.46036 2.70916 7.41152 3.40307 7.67856L15.8552 12.4728C16.9493 12.8941 18.1677 12.8941 19.2617 12.4728L31.7141 7.67837C32.4078 7.41152 32.4153 6.46054 31.7253 6.18347L19.3253 1.20135C18.194 0.746847 16.9231 0.746847 15.7918 1.20135L15.792 1.20153ZM52.2358 16.4118L50.0104 10.5877C49.9196 10.3495 49.5726 10.3495 49.4816 10.5877L47.2566 16.4122C47.2408 16.4536 47.2356 16.4981 47.2413 16.5419C47.2471 16.5857 47.2636 16.6275 47.2896 16.6637C47.3156 16.7 47.3502 16.7296 47.3905 16.75C47.4309 16.7704 47.4757 16.7811 47.5211 16.7811H51.9713C52.0167 16.7811 52.0616 16.7704 52.1019 16.7499C52.1422 16.7295 52.1768 16.6999 52.2027 16.6636C52.2287 16.6273 52.2453 16.5855 52.251 16.5417C52.2567 16.4979 52.2514 16.4534 52.2356 16.412L52.2358 16.4118ZM53.2634 19.6855H46.2288C46.1713 19.6855 46.1151 19.7026 46.0678 19.7345C46.0206 19.7664 45.9845 19.8116 45.9645 19.864L44.5795 23.4879C44.5595 23.5403 44.5234 23.5855 44.4762 23.6174C44.4289 23.6493 44.3727 23.6664 44.3152 23.6664H41.266C41.2199 23.6664 41.1745 23.6554 41.1338 23.6344C41.0931 23.6135 41.0583 23.5831 41.0325 23.546C41.0067 23.509 40.9906 23.4663 40.9857 23.4218C40.9808 23.3773 40.9872 23.3323 41.0043 23.2908L48.0244 6.31162C48.0454 6.26091 48.0816 6.21746 48.1283 6.18689C48.1749 6.15631 48.23 6.13999 48.2863 6.14005H51.2059C51.321 6.14005 51.4246 6.20795 51.4676 6.31162L58.4875 23.2906C58.5047 23.3322 58.5112 23.3772 58.5063 23.4217C58.5014 23.4663 58.4854 23.509 58.4596 23.5461C58.4337 23.5832 58.3989 23.6136 58.3581 23.6346C58.3174 23.6556 58.2719 23.6666 58.2258 23.6666H55.1772C55.1196 23.6666 55.0634 23.6494 55.0162 23.6175C54.9689 23.5856 54.9329 23.5403 54.9129 23.4879L53.5277 19.864C53.5077 19.8116 53.4716 19.7664 53.4244 19.7345C53.3771 19.7026 53.3209 19.6855 53.2634 19.6855ZM59.9161 12.0989H62.524C62.5988 12.0989 62.6706 12.1277 62.7234 12.1791C62.7763 12.2304 62.806 12.3 62.806 12.3727V23.3926C62.806 23.4652 62.7763 23.5349 62.7234 23.5862C62.6706 23.6376 62.5988 23.6664 62.524 23.6664H59.9161C59.8413 23.6664 59.7696 23.6376 59.7167 23.5862C59.6638 23.5349 59.6341 23.4652 59.6341 23.3926V12.3725C59.6341 12.2999 59.6638 12.2302 59.7167 12.1789C59.7696 12.1275 59.8413 12.0987 59.9161 12.0987V12.0989ZM72.3173 14.7795C72.3173 14.8521 72.2876 14.9217 72.2347 14.9731C72.1818 15.0244 72.1101 15.0533 72.0353 15.0533H71.9563C70.6668 15.0533 69.721 15.3537 69.1194 15.9546C68.5175 16.5555 68.217 17.5488 68.217 18.9342V23.3926C68.217 23.4652 68.1873 23.5349 68.1344 23.5862C68.0816 23.6376 68.0098 23.6664 67.935 23.6664H65.3527C65.2779 23.6664 65.2062 23.6376 65.1533 23.5862C65.1004 23.5349 65.0707 23.4652 65.0707 23.3926V12.3725C65.0707 12.2999 65.1004 12.2302 65.1533 12.1789C65.2062 12.1275 65.2779 12.0987 65.3527 12.0987H67.9091C67.9839 12.0987 68.0556 12.1275 68.1085 12.1789C68.1614 12.2302 68.1911 12.2999 68.1911 12.3725V14.5522H68.2428C68.5522 13.6509 69.0422 12.9586 69.7129 12.4741C70.3831 11.9903 71.2085 11.748 72.1883 11.748H72.3173V14.7793V14.7795ZM79.4481 14.6776C79.3733 14.6776 79.3016 14.7065 79.2487 14.7578C79.1958 14.8092 79.1661 14.8788 79.1661 14.9514V19.5351C79.1661 20.0025 79.2601 20.3364 79.4496 20.5366C79.6385 20.7368 79.9653 20.837 80.4295 20.837H80.6891C80.7639 20.837 80.8356 20.8659 80.8885 20.9172C80.9414 20.9686 80.9711 21.0382 80.9711 21.1108V23.4175C80.9711 23.4901 80.9414 23.5597 80.8885 23.6111C80.8356 23.6624 80.7639 23.6912 80.6891 23.6912H79.5784C78.4265 23.6912 77.5412 23.4034 76.9223 22.8275C76.3032 22.2516 75.9938 21.3965 75.9938 20.2612V14.9514C75.9938 14.8788 75.9641 14.8092 75.9112 14.7578C75.8583 14.7065 75.7866 14.6776 75.7118 14.6776H74.0839C74.0091 14.6776 73.9374 14.6488 73.8845 14.5974C73.8316 14.5461 73.8019 14.4764 73.8019 14.4038V12.3725C73.8019 12.2999 73.8316 12.2302 73.8845 12.1789C73.9374 12.1275 74.0091 12.0987 74.0839 12.0987H75.712C75.7868 12.0987 75.8585 12.0698 75.9114 12.0185C75.9643 11.9671 75.994 11.8975 75.994 11.8249V7.74046C75.994 7.66784 76.0237 7.5982 76.0766 7.54686C76.1295 7.49551 76.2012 7.46666 76.276 7.46666H78.8839C78.9587 7.46666 79.0304 7.49551 79.0833 7.54686C79.1362 7.5982 79.1659 7.66784 79.1659 7.74046V11.8249C79.1659 11.8975 79.1956 11.9671 79.2485 12.0185C79.3014 12.0698 79.3731 12.0987 79.4479 12.0987H81.3337C81.4085 12.0987 81.4802 12.1275 81.5331 12.1789C81.586 12.2302 81.6157 12.2999 81.6157 12.3725V14.404C81.6157 14.4766 81.586 14.5463 81.5331 14.5976C81.4802 14.649 81.4085 14.6778 81.3337 14.6778H79.4481V14.6776ZM91.39 20.2362C91.9831 19.6353 92.2796 18.8508 92.2796 17.8825C92.2796 16.9147 91.9831 16.1298 91.39 15.5289C90.7969 14.9281 90.0187 14.6276 89.056 14.6276C88.093 14.6276 87.3155 14.9281 86.7222 15.5289C86.1292 16.1298 85.8326 16.9147 85.8326 17.8825C85.8326 18.8508 86.1292 19.6353 86.7222 20.2362C87.3155 20.837 88.093 21.1375 89.056 21.1375C90.0187 21.1375 90.7969 20.837 91.39 20.2362ZM85.3684 23.3158C84.4916 22.8319 83.7993 22.1264 83.2925 21.2001C82.7851 20.2738 82.5317 19.168 82.5317 17.8825C82.5317 16.5975 82.7851 15.4913 83.2925 14.565C83.7993 13.6387 84.4916 12.9338 85.3684 12.4493C86.2452 11.9653 87.2078 11.7232 88.2566 11.7232C89.185 11.7232 89.98 11.8985 90.6423 12.2489C91.3037 12.5994 91.8324 13.092 92.2281 13.7263H92.2796V12.3725C92.2796 12.2999 92.3093 12.2302 92.3622 12.1789C92.4151 12.1275 92.4868 12.0987 92.5616 12.0987H95.1438C95.2186 12.0987 95.2903 12.1275 95.3432 12.1789C95.3961 12.2302 95.4258 12.2999 95.4258 12.3725V23.3924C95.4258 23.4651 95.3961 23.5347 95.3432 23.586C95.2903 23.6374 95.2186 23.6662 95.1438 23.6662H92.5616C92.4868 23.6662 92.4151 23.6374 92.3622 23.586C92.3093 23.5347 92.2796 23.4651 92.2796 23.3924V22.0388H92.2281C91.8324 22.6735 91.3037 23.1656 90.6421 23.516C89.98 23.8665 89.1851 24.0417 88.2566 24.0417C87.2078 24.0417 86.2452 23.7997 85.3684 23.3158ZM106.165 20.2362C106.758 19.6353 107.054 18.8508 107.054 17.8825C107.054 16.9147 106.758 16.1298 106.165 15.5289C105.572 14.9281 104.794 14.6276 103.831 14.6276C102.868 14.6276 102.09 14.9281 101.497 15.5289C100.904 16.1298 100.607 16.9147 100.607 17.8825C100.607 18.8508 100.904 19.6353 101.497 20.2362C102.09 20.837 102.868 21.1375 103.831 21.1375C104.794 21.1375 105.572 20.837 106.165 20.2362ZM102.245 23.516C101.583 23.1656 101.054 22.6735 100.659 22.0388H100.607V23.3924C100.607 23.4651 100.578 23.5347 100.525 23.586C100.472 23.6374 100.4 23.6662 100.325 23.6662H97.7175C97.6427 23.6662 97.571 23.6374 97.5181 23.586C97.4652 23.5347 97.4355 23.4651 97.4355 23.3924V6.41329C97.4355 6.34068 97.4652 6.27104 97.5181 6.21969C97.571 6.16835 97.6427 6.1395 97.7175 6.1395H100.325C100.4 6.1395 100.472 6.16835 100.525 6.21969C100.578 6.27104 100.607 6.34068 100.607 6.41329V13.7261H100.659C101.054 13.0918 101.583 12.5994 102.245 12.2489C102.907 11.8983 103.702 11.723 104.631 11.723C105.679 11.723 106.642 11.9651 107.519 12.4491C108.396 12.9336 109.087 13.6385 109.595 14.5646C110.102 15.4915 110.356 16.5976 110.356 17.8826C110.356 19.1682 110.102 20.2738 109.595 21.2003C109.088 22.1266 108.396 22.8321 107.519 23.3158C106.642 23.7998 105.679 24.0421 104.631 24.0421C103.702 24.0421 102.907 23.8668 102.245 23.5162L102.245 23.516ZM114.75 23.6664H112.142C112.067 23.6664 111.995 23.6376 111.942 23.5862C111.889 23.5349 111.86 23.4652 111.86 23.3926V6.41384C111.86 6.34123 111.889 6.27158 111.942 6.22024C111.995 6.16889 112.067 6.14005 112.142 6.14005H114.75C114.824 6.14005 114.896 6.16889 114.949 6.22024C115.002 6.27158 115.032 6.34123 115.032 6.41384V23.3926C115.032 23.4652 115.002 23.5349 114.949 23.5862C114.896 23.6376 114.824 23.6664 114.75 23.6664ZM120.901 14.778C120.469 15.1055 120.177 15.5782 120.026 16.1966C119.984 16.3671 120.121 16.5307 120.302 16.5307H125.265C125.437 16.5307 125.573 16.381 125.545 16.216C125.445 15.631 125.187 15.1646 124.77 14.8156C124.28 14.4068 123.639 14.2023 122.848 14.2023C122.057 14.2023 121.408 14.3942 120.901 14.778ZM127.258 13.3382C128.272 14.4152 128.78 15.9384 128.78 17.9076V18.2347C128.78 18.3074 128.75 18.377 128.697 18.4283C128.644 18.4797 128.572 18.5085 128.498 18.5085H120.206C120.165 18.5086 120.124 18.5175 120.087 18.5344C120.049 18.5514 120.016 18.5761 119.989 18.6068C119.963 18.6375 119.943 18.6734 119.933 18.7121C119.922 18.7508 119.92 18.7914 119.927 18.8309C120.06 19.5625 120.393 20.1436 120.927 20.5742C121.537 21.067 122.307 21.3129 123.235 21.3129C124.434 21.3129 125.543 20.8588 126.563 19.9503C126.688 19.8393 126.885 19.8629 126.982 19.9978L128.25 21.7647C128.29 21.8196 128.307 21.8868 128.299 21.9535C128.291 22.0202 128.258 22.0818 128.207 22.1264C127.584 22.6553 126.892 23.1016 126.149 23.4536C125.324 23.8457 124.352 24.0421 123.235 24.0421C121.946 24.0421 120.819 23.7873 119.857 23.2784C118.894 22.7695 118.146 22.0518 117.613 21.1251C117.08 20.1987 116.814 19.1264 116.814 17.9076C116.814 16.6895 117.072 15.6129 117.587 14.6778C118.103 13.7433 118.825 13.0172 119.754 12.4995C120.682 11.9824 121.765 11.7234 123.003 11.7234C124.825 11.7234 126.244 12.2619 127.258 13.3382ZM63.1467 8.02484C63.1467 9.05758 62.2843 9.89484 61.2204 9.89484C60.1564 9.89484 59.294 9.05758 59.294 8.02465C59.294 6.99172 60.1566 6.15447 61.2204 6.15447C62.2843 6.15447 63.1467 6.99172 63.1467 8.02465V8.02484ZM18.6633 27.0677V15.0909C18.6633 14.9293 18.7134 14.7714 18.8069 14.6377C18.9004 14.504 19.0331 14.4007 19.1878 14.3411L33.0633 9.11202C33.6087 8.90211 34.2004 9.29218 34.2004 9.86185V21.8386C34.2004 22.0002 34.1504 22.1581 34.0569 22.2918C33.9634 22.4256 33.8306 22.5289 33.6758 22.5884L19.8003 27.8175C19.255 28.0274 18.6633 27.6372 18.6633 27.0677ZM11.3052 17.6392L11.3052 17.6392L10.8871 17.8354L2.19433 21.8793C1.6435 22.1374 0.940002 21.7475 0.940002 21.1532V9.91201C0.940002 9.69699 1.05355 9.51136 1.20583 9.37172C1.20587 9.37169 1.20591 9.37165 1.20595 9.37161L1.20586 9.37154C1.26052 9.31876 1.32161 9.2727 1.38774 9.23437C1.39409 9.23069 1.40048 9.22708 1.40692 9.22354C1.41007 9.22181 1.41322 9.2201 1.41639 9.2184C1.49422 9.17302 1.58453 9.14011 1.6803 9.12181C1.81288 9.09647 1.95591 9.09911 2.09079 9.13538C2.11831 9.14278 2.14549 9.15157 2.17217 9.16182L15.3539 14.2328C16.024 14.4909 16.0766 15.4025 15.4231 15.7089C15.4231 15.7089 15.4231 15.7089 15.4231 15.7089V15.7087L11.3052 17.6392Z" fill="#7A7493"/>
</svg>
