<svg width="113" height="21" viewBox="0 0 113 21" fill="none" xmlns="http://www.w3.org/2000/svg">
<path d="M23.1614 5.96212C19.1043 5.96212 15.9343 9.04197 15.9343 13.1649C15.9343 17.288 19.0242 20.3414 23.1614 20.3414C27.2986 20.3414 30.4423 17.2352 30.4423 13.1386C30.4423 9.06831 27.3524 5.96212 23.1614 5.96212ZM23.1888 17.3701C20.8784 17.3701 19.1854 15.5757 19.1854 13.166C19.1854 10.7289 20.851 8.93551 23.1614 8.93551C25.4992 8.93551 27.1912 10.7562 27.1912 13.166C27.1912 15.5757 25.4992 17.3701 23.1888 17.3701ZM31.3284 9.09567H33.3436V20.0748H36.5674V6.22976H31.3284V9.09567ZM7.82104 8.93449C9.51405 8.93449 10.8573 9.97868 11.3672 11.5318H14.7796C14.1612 8.21167 11.421 5.96212 7.84841 5.96212C3.7913 5.96212 0.621243 9.04197 0.621243 13.166C0.621243 17.29 3.71122 20.3425 7.84841 20.3425C11.3408 20.3425 14.1348 18.0929 14.7532 14.7454H11.3672C10.8836 16.2985 9.54039 17.3701 7.84741 17.3701C5.50965 17.3701 3.87138 15.5757 3.87138 13.166C3.87241 10.7289 5.4843 8.93449 7.82104 8.93449ZM92.5823 11.8268L90.2182 11.479C89.0901 11.3189 88.284 10.9438 88.284 10.0598C88.284 9.09568 89.3323 8.61413 90.7556 8.61413C92.3139 8.61413 93.3083 9.28324 93.5231 10.3811H96.6396C96.2899 7.59631 94.1406 5.96312 90.8367 5.96312C87.4243 5.96312 85.1678 7.70379 85.1678 10.1672C85.1678 12.5232 86.6456 13.8898 89.6272 14.3176L91.9913 14.6653C93.1471 14.8255 93.7918 15.2817 93.7918 16.1383C93.7918 17.2363 92.6637 17.6914 91.1054 17.6914C89.1973 17.6914 88.1228 16.9149 87.9617 15.7369H84.7915C85.0876 18.4416 87.2095 20.3425 91.0779 20.3425C94.5979 20.3425 96.9345 18.7356 96.9345 15.9771C96.9345 13.5137 95.2425 12.2282 92.5823 11.8268ZM34.9555 0.526274C33.7735 0.526274 32.8866 1.38291 32.8866 2.56091C32.8866 3.73891 33.7725 4.59555 34.9555 4.59555C36.1375 4.59555 37.0247 3.73891 37.0247 2.56091C37.0247 1.38291 36.1375 0.526274 34.9555 0.526274ZM82.2663 10.9701C82.2663 7.9714 80.4396 5.96312 76.5709 5.96312C72.9172 5.96312 70.8755 7.81124 70.4721 10.6498H73.6694C73.8305 9.55188 74.6903 8.6415 76.5173 8.6415C78.1566 8.6415 78.9624 9.36432 78.9624 10.2483C78.9624 11.4 77.4842 11.694 75.6575 11.8815C73.1859 12.1491 70.1233 13.0058 70.1233 16.2194C70.1233 18.7103 71.9774 20.3161 74.9328 20.3161C77.2429 20.3161 78.6937 19.352 79.4197 17.8253C79.5272 19.1908 80.5481 20.0748 81.9723 20.0748H83.8529V17.2099H82.2672V10.9701H82.2663ZM79.0961 14.4514C79.0961 16.2995 77.4842 17.6651 75.5226 17.6651C74.3134 17.6651 73.2925 17.1562 73.2925 16.0856C73.2925 14.7201 74.9315 14.345 76.4362 14.1848C77.8869 14.051 78.6927 13.7296 79.0961 13.1133V14.4514ZM61.9827 5.96212C60.1823 5.96212 58.6779 6.7123 57.6034 7.9704V0.392456H54.3796V20.0748H57.5495V18.2541C58.624 19.5659 60.1561 20.3425 61.9827 20.3425C65.8512 20.3425 68.7801 17.29 68.7801 13.166C68.7801 9.04197 65.7976 5.96212 61.9827 5.96212ZM61.4993 17.3701C59.1888 17.3701 57.4959 15.5757 57.4959 13.166C57.4959 10.7562 59.2153 8.93551 61.5255 8.93551C63.8633 8.93551 65.5014 10.7299 65.5014 13.166C65.5014 15.5757 63.8094 17.3701 61.4993 17.3701ZM46.6686 5.96212C44.5733 5.96212 43.2026 6.81876 42.3968 8.02411V6.22976H39.1992V20.0738H42.423V12.5496C42.423 10.4339 43.7662 8.93449 45.7544 8.93449C47.6085 8.93449 48.7631 10.2463 48.7631 12.1482V20.0748H51.9869V11.9079C51.9881 8.42557 50.1886 5.96212 46.6686 5.96212ZM112.302 12.7108C112.302 8.74795 109.401 5.96312 105.505 5.96312C101.368 5.96312 98.3316 9.06933 98.3316 13.166C98.3316 17.4775 101.583 20.3425 105.559 20.3425C108.917 20.3425 111.55 18.3605 112.221 15.5493H108.862C108.379 16.7811 107.197 17.4775 105.612 17.4775C103.542 17.4775 101.984 16.1921 101.635 13.9425H112.301V12.7108H112.302ZM101.824 11.6392C102.335 9.71104 103.785 8.77432 105.451 8.77432C107.278 8.77432 108.675 9.81849 108.997 11.6392H101.824Z" fill="#7A7493"/>
</svg>
