<svg width="142" height="29" viewBox="0 0 142 29" fill="none" xmlns="http://www.w3.org/2000/svg">
<path d="M30.0768 3.07605C27.7829 2.00281 25.3302 1.22282 22.766 0.778687C22.4511 1.34805 22.0832 2.11385 21.8295 2.72304C19.1036 2.31311 16.4029 2.31311 13.7271 2.72304C13.4735 2.11385 13.0972 1.34805 12.7795 0.778687C10.2125 1.22282 7.75698 2.00567 5.46312 3.08173C0.836374 10.0733 -0.41786 16.8913 0.209259 23.6124C3.27796 25.9041 6.2519 27.2962 9.17565 28.2071C9.89754 27.2136 10.5414 26.1574 11.096 25.0444C10.0397 24.643 9.02793 24.1477 8.07195 23.5726C8.32556 23.3847 8.57364 23.1883 8.81332 22.9862C14.6441 25.7134 20.9794 25.7134 26.7405 22.9862C26.983 23.1883 27.2311 23.3847 27.4819 23.5726C26.5231 24.1505 25.5086 24.6458 24.4523 25.0472C25.0069 26.1574 25.648 27.2165 26.3726 28.2099C29.2992 27.299 32.2759 25.9069 35.3446 23.6124C36.0804 15.8209 34.0876 9.06559 30.0768 3.07605ZM11.8904 19.479C10.14 19.479 8.7046 17.8449 8.7046 15.8551C8.7046 13.8652 10.1094 12.2283 11.8904 12.2283C13.6714 12.2283 15.1068 13.8623 15.0761 15.8551C15.0789 17.8449 13.6714 19.479 11.8904 19.479ZM23.6635 19.479C21.9131 19.479 20.4777 17.8449 20.4777 15.8551C20.4777 13.8652 21.8824 12.2283 23.6635 12.2283C25.4445 12.2283 26.8799 13.8623 26.8493 15.8551C26.8493 17.8449 25.4445 19.479 23.6635 19.479Z" fill="#7A7493"/>
<path d="M47.6775 7.77661H55.2864C57.1206 7.77661 58.6702 8.06982 59.9414 8.65341C61.2093 9.23696 62.1599 10.0511 62.7899 11.0931C63.4195 12.135 63.7372 13.3278 63.7372 14.6714C63.7372 15.9866 63.4083 17.1794 62.7506 18.2469C62.0929 19.3173 61.0922 20.1628 59.7461 20.7862C58.4001 21.4097 56.733 21.7228 54.7404 21.7228H47.6775V7.77661ZM54.6622 18.1786C55.897 18.1786 56.8476 17.8626 57.5107 17.2335C58.1742 16.6015 58.506 15.7418 58.506 14.6515C58.506 13.6409 58.2102 12.8352 57.6195 12.2317C57.0288 11.6282 56.134 11.3236 54.9381 11.3236H52.5578V18.1786H54.6622Z" fill="#7A7493"/>
<path d="M75.1286 21.7058C74.075 21.4268 73.1244 21.0226 72.2801 20.4902V17.1823C72.9184 17.6862 73.7738 18.1018 74.8469 18.4292C75.9199 18.7537 76.957 18.916 77.9601 18.916C78.4284 18.916 78.7825 18.8534 79.022 18.7281C79.262 18.6028 79.382 18.452 79.382 18.2783C79.382 18.079 79.3178 17.9139 79.1867 17.7801C79.0555 17.6463 78.8019 17.5353 78.426 17.4413L76.0846 16.9033C74.7439 16.5845 73.7933 16.1432 73.2278 15.5767C72.6619 15.0131 72.3802 14.2729 72.3802 13.3563C72.3802 12.5848 72.6255 11.9158 73.1219 11.3436C73.615 10.7714 74.3174 10.3302 75.2287 10.0199C76.1405 9.70675 77.2048 9.55019 78.4284 9.55019C79.5209 9.55019 80.5215 9.66974 81.4333 9.90888C82.3446 10.148 83.0971 10.4526 83.6965 10.8255V13.9541C83.083 13.5812 82.3806 13.288 81.5781 13.0659C80.778 12.8467 79.9561 12.7385 79.1085 12.7385C77.8848 12.7385 77.2747 12.952 77.2747 13.3762C77.2747 13.5755 77.3694 13.7235 77.5589 13.8231C77.7483 13.9228 78.0966 14.0253 78.6013 14.1334L80.5521 14.4921C81.8263 14.717 82.7765 15.1127 83.4007 15.6764C84.0254 16.2401 84.3372 17.0742 84.3372 18.1787C84.3372 19.3885 83.8218 20.3479 82.7876 21.0596C81.7534 21.7713 80.2874 22.1271 78.3866 22.1271C77.2689 22.1243 76.1822 21.9848 75.1286 21.7058Z" fill="#7A7493"/>
<path d="M88.9425 21.2872C87.8253 20.7292 86.9805 19.972 86.4175 19.0155C85.8545 18.059 85.5704 16.9829 85.5704 15.7872C85.5704 14.5916 85.8628 13.5213 86.4481 12.579C87.0335 11.6367 87.8918 10.8965 89.0237 10.3585C90.155 9.82049 91.5069 9.55288 93.0817 9.55288C95.0325 9.55288 96.652 9.97136 97.9398 10.8083V14.455C97.4856 14.1361 96.9557 13.8771 96.3509 13.6778C95.7461 13.4786 95.0995 13.3789 94.4083 13.3789C93.1988 13.3789 92.254 13.6038 91.571 14.0564C90.888 14.5091 90.5455 15.0983 90.5455 15.8299C90.5455 16.5473 90.8768 17.1338 91.5404 17.595C92.2039 18.0533 93.1653 18.2839 94.4277 18.2839C95.0772 18.2839 95.7184 18.187 96.3509 17.9963C96.9809 17.8028 97.5245 17.5665 97.9787 17.2875V20.8146C96.5491 21.6914 94.8907 22.1298 93.0035 22.1298C91.415 22.1241 90.0603 21.8451 88.9425 21.2872Z" fill="#7A7493"/>
<path d="M102.806 21.2874C101.68 20.7294 100.822 19.9665 100.231 18.9958C99.6399 18.025 99.3416 16.9433 99.3416 15.7476C99.3416 14.552 99.6369 13.4845 100.231 12.5479C100.824 11.6113 101.677 10.8768 102.798 10.3445C103.915 9.81214 105.25 9.5474 106.797 9.5474C108.344 9.5474 109.679 9.81214 110.797 10.3445C111.915 10.8768 112.768 11.6056 113.353 12.5365C113.938 13.4674 114.231 14.5349 114.231 15.7448C114.231 16.9404 113.938 18.0222 113.353 18.9929C112.768 19.9636 111.912 20.7266 110.786 21.2846C109.66 21.8425 108.33 22.1215 106.795 22.1215C105.259 22.1215 103.929 21.8453 102.806 21.2874ZM108.734 17.7517C109.208 17.2678 109.448 16.6273 109.448 15.8302C109.448 15.0331 109.211 14.3983 108.734 13.9285C108.261 13.456 107.614 13.2197 106.795 13.2197C105.961 13.2197 105.309 13.456 104.832 13.9285C104.359 14.4011 104.121 15.0331 104.121 15.8302C104.121 16.6273 104.359 17.2678 104.832 17.7517C105.306 18.2357 105.961 18.4805 106.795 18.4805C107.614 18.4776 108.261 18.2357 108.734 17.7517Z" fill="#7A7493"/>
<path d="M125.953 10.2875V14.5918C125.458 14.2587 124.816 14.0936 124.022 14.0936C122.982 14.0936 122.18 14.4153 121.622 15.0587C121.062 15.7021 120.783 16.7041 120.783 18.0591V21.7258H116.003V10.0684H120.686V13.7748C120.945 12.4197 121.366 11.4206 121.945 10.7743C122.523 10.131 123.269 9.8093 124.178 9.8093C124.866 9.8093 125.458 9.96872 125.953 10.2875Z" fill="#7A7493"/>
<path d="M141.835 7.37803V21.7256H137.055V19.1152C136.651 20.0973 136.038 20.846 135.213 21.3584C134.388 21.868 133.367 22.1242 132.158 22.1242C131.077 22.1242 130.135 21.8566 129.329 21.3186C128.523 20.7805 127.902 20.0433 127.464 19.1067C127.03 18.1701 126.809 17.1111 126.809 15.9269C126.796 14.7056 127.027 13.6096 127.503 12.6388C127.977 11.6681 128.649 10.9109 129.513 10.3671C130.377 9.82341 131.364 9.55012 132.47 9.55012C134.747 9.55012 136.275 10.5607 137.055 12.579V7.37803H141.835ZM136.342 17.6719C136.829 17.1879 137.072 16.5588 137.072 15.7902C137.072 15.0472 136.835 14.4408 136.361 13.9768C135.887 13.5128 135.238 13.2794 134.421 13.2794C133.616 13.2794 132.972 13.5156 132.49 13.9882C132.007 14.4608 131.768 15.0728 131.768 15.83C131.768 16.5873 132.007 17.205 132.49 17.6833C132.972 18.1615 133.607 18.4006 134.402 18.4006C135.207 18.3978 135.854 18.1558 136.342 17.6719Z" fill="#7A7493"/>
<path d="M67.7653 11.3092C69.0812 11.3092 70.1484 10.3304 70.1484 9.12292C70.1484 7.91546 69.0812 6.93665 67.7653 6.93665C66.4489 6.93665 65.3821 7.91546 65.3821 9.12292C65.3821 10.3304 66.4489 11.3092 67.7653 11.3092Z" fill="#7A7493"/>
<path d="M65.38 12.8153C66.8402 13.4587 68.6521 13.4871 70.1458 12.8153V21.7883H65.38V12.8153Z" fill="#7A7493"/>
</svg>
