<svg width="136" height="28" viewBox="0 0 136 28" fill="none" xmlns="http://www.w3.org/2000/svg">
<path fill-rule="evenodd" clip-rule="evenodd" d="M8.01923 10.7269L15.8547 5.72846L23.6901 10.6999L15.8547 15.6984L23.6496 20.7239L31.4851 15.7254L23.6496 10.7269L31.4851 5.72846L23.6496 0.72998L15.8547 5.72846L8.01923 0.72998L0.183777 5.72846L8.01923 10.6999L0.183777 15.6984L8.01923 20.7239L15.8547 15.7254L8.01923 10.7269ZM15.8141 17.333L7.9787 22.3315L15.8141 27.33L23.6496 22.3315L15.8141 17.333ZM43.9677 5.72837H37.6318V22.3179H44.0893C48.2232 22.3179 51.3439 19.8997 51.3439 14.523V13.4017C51.3439 8.06549 48.007 5.72837 43.9677 5.72837ZM41.1713 19.2918V8.74096H43.7651C46.1022 8.74096 47.7234 10.2405 47.7234 13.5773V14.4554C47.7234 17.7923 46.1833 19.2918 43.8867 19.2918H41.1713ZM56.0586 8.90307H53.2757V22.3584H56.7746V16.1846C56.7746 13.3477 57.4771 12.348 60.3546 12.348H61.8137V8.76798H60.9355C58.4363 8.76798 57.0583 9.90277 56.518 12.0237L56.0586 8.90307ZM62.5161 15.5227V15.9009C62.5161 20.332 64.9749 22.6556 69.3114 22.6962C73.3912 22.6962 76.1066 20.3185 76.1066 15.9009V15.5227C76.1066 11.024 73.3102 8.56534 69.3114 8.56534C65.3936 8.56534 62.5161 11.024 62.5161 15.5227ZM72.5266 15.5227V15.8604C72.5266 18.2786 71.2702 19.616 69.2708 19.6566C67.2714 19.6566 66.0151 18.2786 66.0151 15.8604V15.5227C66.0151 12.9019 67.312 11.5239 69.2708 11.5239C71.2702 11.5239 72.5266 13.0234 72.5266 15.5227ZM80.8619 8.90307H77.9439L77.9033 27.0057H81.3212V20.2104C82.0372 21.7505 83.4962 22.7097 85.6172 22.7097C88.7919 22.7097 91.2912 20.3725 91.2912 15.955V15.5767C91.2912 11.024 89.0351 8.56534 85.6172 8.56534C83.4017 8.56534 81.9021 9.74066 81.1996 11.4428L80.8619 8.90307ZM87.7382 15.5632V15.8604C87.7382 18.3732 86.4953 19.6566 84.4824 19.6971C82.5236 19.6971 81.2672 18.1975 81.2672 15.8199V15.5632C81.2672 13.064 82.5641 11.5644 84.5229 11.5644C86.3602 11.5644 87.7382 12.8883 87.7382 15.5632ZM96.168 22.3314L96.4653 19.8727C97.1677 21.6154 98.6268 22.6556 100.883 22.7097C104.301 22.7097 106.557 20.1564 106.557 15.6983V15.2795C106.557 10.8214 104.179 8.60587 100.964 8.56534C98.8429 8.56534 97.3434 9.52451 96.5868 11.2807V4.40445H93.169V22.3314H96.168ZM102.963 15.3606V15.6983C102.963 18.3732 101.761 19.6566 99.7075 19.6566C97.7892 19.6566 96.4923 18.1975 96.4923 15.6983V15.4011C96.4923 13.064 97.8297 11.5239 99.748 11.5239C101.626 11.5239 102.963 12.9019 102.963 15.3606ZM108.056 15.5227V15.9009C108.056 20.332 110.515 22.6556 114.852 22.6962C118.891 22.6962 121.647 20.3185 121.647 15.9009V15.5227C121.647 11.024 118.85 8.56534 114.852 8.56534C110.934 8.56534 108.056 11.024 108.056 15.5227ZM118.094 15.5227V15.8604C118.094 18.2786 116.851 19.616 114.838 19.6566C112.839 19.6566 111.582 18.2786 111.582 15.8604V15.5227C111.582 12.9019 112.879 11.5239 114.838 11.5239C116.837 11.5239 118.094 13.0234 118.094 15.5227ZM121.512 8.90307L126.226 15.3606L121.106 22.3314H125.24L128.239 17.8733L131.32 22.3314H135.278L130.239 15.32L135.021 8.90307H131.022L128.266 12.9424L125.551 8.90307H121.512Z" fill="#7A7493"/>
</svg>
