<svg width="79" height="29" viewBox="0 0 79 29" fill="none" xmlns="http://www.w3.org/2000/svg">
<path d="M0.67749 0.72998V22.7841L3.49912 22.795V12.2931H10.2819V9.51444H3.48827V3.49769H12.333V0.72998H0.67749ZM17.3902 5.21519C17.8795 5.21519 18.3488 5.01926 18.6948 4.67049C19.0408 4.32173 19.2351 3.8487 19.2351 3.35547C19.2351 2.86224 19.0408 2.38921 18.6948 2.04045C18.3488 1.69168 17.8795 1.49575 17.3902 1.49575C16.9009 1.49575 16.4317 1.69168 16.0857 2.04045C15.7397 2.38921 15.5453 2.86224 15.5453 3.35547C15.5453 3.8487 15.7397 4.32173 16.0857 4.67049C16.4317 5.01926 16.9009 5.21519 17.3902 5.21519ZM15.9686 7.9829V22.795H18.7902V7.9829H15.9686Z" fill="#7A7493"/>
<path fill-rule="evenodd" clip-rule="evenodd" d="M29.2193 7.55625C25.4861 7.55625 22.8815 10.7397 22.8815 14.5247C22.8815 18.3098 25.4861 21.4932 29.2193 21.4932C30.934 21.4932 32.3448 20.8369 33.3758 19.7429V21.712C33.383 22.3004 33.2744 22.8843 33.0563 23.4301C32.8382 23.976 32.515 24.4728 32.1053 24.8919C31.6956 25.311 31.2075 25.6441 30.6693 25.8719C30.1311 26.0997 29.5535 26.2177 28.9697 26.2191C28.069 26.2191 27.1791 25.869 26.4737 25.3658L25.0629 27.8272C26.1538 28.538 27.4148 28.9389 28.7129 28.9875C30.0109 29.0361 31.298 28.7306 32.4382 28.1032C33.5783 27.4759 34.5294 26.55 35.1911 25.4232C35.8527 24.2964 36.2004 23.0105 36.1975 21.7011V7.99383H33.3758V9.31751C32.3448 8.22356 30.934 7.56719 29.2193 7.56719V7.55625ZM25.6923 14.5247C25.6923 12.1727 27.4721 10.324 29.5341 10.324C31.596 10.324 33.365 12.1837 33.365 14.5247C33.365 16.8767 31.5852 18.7146 29.5341 18.7146C27.4721 18.7146 25.6923 16.8767 25.6923 14.5247Z" fill="#7A7493"/>
<path d="M46.3336 10.324C45.5266 10.3384 44.7577 10.6724 44.1931 11.2538C43.6285 11.8352 43.3137 12.6173 43.3166 13.4309V22.7951H40.495V7.98296H43.3166V9.33946C43.7388 8.77546 44.2872 8.31998 44.917 8.01011C45.5469 7.70024 46.2405 7.54475 46.9413 7.55631C48.9165 7.55631 50.4358 8.54087 51.304 10.0505C51.7884 9.29373 52.4513 8.66977 53.2335 8.2345C54.0156 7.79922 54.8927 7.56621 55.7861 7.55631C58.9875 7.55631 60.9952 10.1599 60.9952 13.3871V22.7951H58.1953V13.4199C58.1983 12.6063 57.8834 11.8243 57.3189 11.2429C56.7543 10.6615 55.9853 10.3274 55.1783 10.3131C54.3714 10.3274 53.6024 10.6615 53.0378 11.2429C52.4732 11.8243 52.1584 12.6063 52.1614 13.4199V22.7842H49.3397V13.4199C49.3428 12.6082 49.0294 11.8277 48.4671 11.2466C47.9049 10.6655 47.1387 10.3303 46.3336 10.3131V10.324Z" fill="#7A7493"/>
<path fill-rule="evenodd" clip-rule="evenodd" d="M76.0042 9.66762C75.3635 8.99414 74.5932 8.45952 73.7404 8.09649C72.8876 7.73346 71.9703 7.54964 71.0447 7.55629C66.8556 7.55629 63.882 11.1226 63.882 15.389C63.882 19.6554 66.8556 23.2217 71.0447 23.2217C71.9701 23.2265 72.8868 23.0418 73.7393 22.6788C74.5918 22.3159 75.3623 21.7823 76.0042 21.1104V22.7951H78.815V7.98293H75.9934V9.66762H76.0042ZM66.6928 15.389C66.6928 12.5666 68.8416 10.324 71.3485 10.324C73.8446 10.324 76.0042 12.5666 76.0042 15.389C76.0042 18.2114 73.8554 20.4431 71.3485 20.4431C68.8525 20.4431 66.6928 18.2114 66.6928 15.389Z" fill="#7A7493"/>
</svg>
