<svg width="123" height="41" viewBox="0 0 123 41" fill="none" xmlns="http://www.w3.org/2000/svg">
<path fill-rule="evenodd" clip-rule="evenodd" d="M16.4195 14.4249V18.6655L26.5546 18.661C26.2437 20.9999 25.455 22.7124 24.2563 23.9111C22.7782 25.3892 20.4708 27.0161 16.4195 27.0161C10.1735 27.0161 5.28839 21.9823 5.28839 15.7363C5.28839 9.49023 10.1735 4.45645 16.4195 4.45645C19.7904 4.45645 22.2509 5.78137 24.067 7.48483L27.0594 4.49251C24.5267 2.07251 21.1558 0.21582 16.424 0.21582C7.87062 0.21582 0.678223 7.1829 0.678223 15.7363C0.678223 24.2896 7.87062 31.2567 16.424 31.2567C21.0387 31.2567 24.5222 29.7425 27.2486 26.9034C30.0517 24.1004 30.9215 20.1662 30.9215 16.9846C30.9215 16.0382 30.8493 15.1639 30.7096 14.4249H16.4195ZM101.913 30.6486V1.35628H97.6314V30.6486H101.913ZM42.6519 31.2614C48.1769 31.2614 52.6789 27.0207 52.6789 21.2659C52.6789 15.4705 48.1769 11.2705 42.6519 11.2705C37.1269 11.2705 32.6249 15.4705 32.6249 21.2659C32.6249 27.0207 37.1269 31.2614 42.6519 31.2614ZM42.6519 15.2092C45.6802 15.2092 48.2895 17.6697 48.2895 21.2659C48.2895 24.8216 45.6802 27.3227 42.6519 27.3227C39.6235 27.3227 37.0142 24.8261 37.0142 21.2659C37.0142 17.6697 39.6235 15.2092 42.6519 15.2092ZM64.2834 31.2614C69.8084 31.2614 74.3104 27.0207 74.3104 21.2659C74.3104 15.4705 69.8084 11.2705 64.2834 11.2705C58.7584 11.2705 54.2564 15.475 54.2564 21.2659C54.2564 27.0207 58.7584 31.2614 64.2834 31.2614ZM64.2834 15.2092C67.3118 15.2092 69.9211 17.6697 69.9211 21.2659C69.9211 24.8216 67.3118 27.3227 64.2834 27.3227C61.255 27.3227 58.6458 24.8261 58.6458 21.2659C58.6458 17.6697 61.255 15.2092 64.2834 15.2092ZM95.0407 11.8788V29.8193C95.0407 37.201 90.6874 40.2158 85.541 40.2158C80.6964 40.2158 77.7807 36.9756 76.6811 34.3258L80.5027 32.735C81.1832 34.3619 82.8506 36.2816 85.5365 36.2816C88.8307 36.2816 90.8722 34.2492 90.8722 30.4232V28.9856H90.7189C89.7365 30.1978 87.8438 31.2569 85.4553 31.2569C80.4576 31.2569 75.879 26.9036 75.879 21.302C75.879 15.6598 80.4576 11.2705 85.4553 11.2705C87.8393 11.2705 89.732 12.3295 90.7189 13.5057H90.8722V11.8788H95.0407ZM91.1831 21.302C91.1831 17.7824 88.8352 15.2092 85.8474 15.2092C82.819 15.2092 80.2818 17.7824 80.2818 21.302C80.2818 24.7855 82.819 27.3227 85.8474 27.3227C88.8352 27.3227 91.1831 24.7855 91.1831 21.302ZM118.596 24.5557L122.003 26.827C120.904 28.4538 118.254 31.2569 113.675 31.2569C107.997 31.2569 103.756 26.8675 103.756 21.2614C103.756 15.3173 108.033 11.266 113.184 11.266C118.371 11.266 120.908 15.3939 121.737 17.6247L122.192 18.7603L108.831 24.2943C109.854 26.2997 111.444 27.3227 113.675 27.3227C115.91 27.3227 117.461 26.2231 118.596 24.5557ZM108.11 20.9595L117.041 17.2506C116.55 16.0023 115.072 15.1326 113.333 15.1326C111.102 15.1326 107.997 17.1019 108.11 20.9595Z" fill="white"/>
</svg>
