<svg width="95" height="31" viewBox="0 0 95 31" fill="none" xmlns="http://www.w3.org/2000/svg">
<path fill-rule="evenodd" clip-rule="evenodd" d="M12.7823 11.1414V14.4021L20.5753 14.3986C20.3362 16.197 19.7298 17.5137 18.8081 18.4355C17.6715 19.572 15.8974 20.8229 12.7823 20.8229C7.97963 20.8229 4.22345 16.9524 4.22345 12.1498C4.22345 7.34713 7.97963 3.47661 12.7823 3.47661C15.3742 3.47661 17.2661 4.49535 18.6625 5.80516L20.9634 3.50433C19.016 1.64357 16.4241 0.215942 12.7857 0.215942C6.20896 0.215942 0.67865 5.57299 0.67865 12.1498C0.67865 18.7265 6.20896 24.0836 12.7857 24.0836C16.334 24.0836 19.0125 22.9193 21.1089 20.7363C23.2642 18.581 23.933 15.556 23.933 13.1096C23.933 12.3819 23.8775 11.7097 23.7701 11.1414H12.7823ZM78.5188 23.616V1.09285H75.2269V23.616H78.5188ZM32.9526 24.0872C37.2008 24.0872 40.6625 20.8265 40.6625 16.4016C40.6625 11.9454 37.2008 8.71596 32.9526 8.71596C28.7044 8.71596 25.2427 11.9454 25.2427 16.4016C25.2427 20.8265 28.7044 24.0872 32.9526 24.0872ZM32.9526 11.7445C35.2812 11.7445 37.2874 13.6364 37.2874 16.4016C37.2874 19.1355 35.2812 21.0587 32.9526 21.0587C30.624 21.0587 28.6178 19.139 28.6178 16.4016C28.6178 13.6364 30.624 11.7445 32.9526 11.7445ZM49.5853 24.0872C53.8335 24.0872 57.2952 20.8265 57.2952 16.4016C57.2952 11.9454 53.8335 8.71596 49.5853 8.71596C45.3371 8.71596 41.8755 11.9489 41.8755 16.4016C41.8755 20.8265 45.3371 24.0872 49.5853 24.0872ZM49.5853 11.7445C51.9139 11.7445 53.9202 13.6364 53.9202 16.4016C53.9202 19.1355 51.9139 21.0587 49.5853 21.0587C47.2568 21.0587 45.2505 19.139 45.2505 16.4016C45.2505 13.6364 47.2568 11.7445 49.5853 11.7445ZM73.2349 9.18375V22.9783C73.2349 28.6542 69.8876 30.9723 65.9305 30.9723C62.2055 30.9723 59.9635 28.4809 59.1181 26.4434L62.0565 25.2203C62.5797 26.4712 63.8618 27.9473 65.927 27.9473C68.46 27.9473 70.0297 26.3845 70.0297 23.4427V22.3373H69.9119C69.1565 23.2694 67.7011 24.0837 65.8646 24.0837C62.0218 24.0837 58.5013 20.7364 58.5013 16.4293C58.5013 12.091 62.0218 8.71596 65.8646 8.71596C67.6976 8.71596 69.153 9.53026 69.9119 10.4347H70.0297V9.18375H73.2349ZM70.2688 16.4293C70.2688 13.723 68.4634 11.7445 66.1661 11.7445C63.8375 11.7445 61.8867 13.723 61.8867 16.4293C61.8867 19.1078 63.8375 21.0587 66.1661 21.0587C68.4634 21.0587 70.2688 19.1078 70.2688 16.4293ZM91.347 18.9311L93.9666 20.6775C93.1211 21.9284 91.0836 24.0837 87.5631 24.0837C83.1971 24.0837 79.9364 20.7087 79.9364 16.3981C79.9364 11.8276 83.2248 8.71251 87.1854 8.71251C91.1737 8.71251 93.1246 11.8865 93.7621 13.6018L94.1121 14.475L83.8381 18.7301C84.6247 20.2721 85.8479 21.0587 87.5631 21.0587C89.2818 21.0587 90.4738 20.2132 91.347 18.9311ZM83.2837 16.166L90.1515 13.3142C89.7738 12.3543 88.6373 11.6856 87.2997 11.6856C85.5845 11.6856 83.1971 13.1998 83.2837 16.166Z" fill="#7A7493"/>
</svg>
