<svg width="235" height="33" viewBox="0 0 235 33" fill="none" xmlns="http://www.w3.org/2000/svg">
<path d="M139.791 0.216353C134.943 0.216353 130.203 4.60705 129.658 10.9512V0.739358H122.695V31.5306H129.743V16.6264C129.743 12.4514 132.702 6.56204 139.791 6.56204V0.216353Z" fill="white"/>
<path d="M213.724 26.6012V5.50553H217.807C223.251 5.50553 227.675 8.90806 227.675 15.8833C227.675 22.8584 223.251 26.6012 217.807 26.6012H213.724ZM206.748 31.5349H218.658C225.973 31.5349 234.99 26.7714 234.99 15.8833C234.99 5.16528 225.973 0.741982 218.658 0.741982H206.748V31.5349Z" fill="white"/>
<path d="M180.06 16.2239C180.06 10.6097 182.952 6.01628 187.715 6.01628C192.308 6.01628 194.86 10.6097 194.86 16.2239C194.86 21.8381 192.308 26.4315 187.715 26.4315C182.952 26.4315 180.06 21.8381 180.06 16.2239ZM172.914 16.5641C172.914 25.751 177.677 32.2158 185.163 32.2158C190.607 32.2158 193.839 28.6431 195.541 22.8588V31.5353H202.514V0.74236H195.541V8.90844C194.01 3.46438 190.778 0.23198 185.674 0.23198C178.018 0.23198 172.914 7.20717 172.914 16.5641Z" fill="white"/>
<path d="M14.076 32.2158C5.39957 32.2158 0.295776 25.2406 0.295776 16.5641C0.295776 7.54743 5.90995 0.23198 16.6279 0.23198C27.6862 0.23198 31.429 7.71755 31.599 11.9707H23.6031C23.433 9.58894 21.3915 6.01628 16.4578 6.01628C11.1839 6.01628 7.78135 10.6097 7.78135 16.2239C7.78135 21.8381 11.1839 26.4315 16.4578 26.4315C21.2213 26.4315 23.2628 22.6887 24.1135 18.9459H16.4578V15.8836H32.522V31.5353H25.4745V21.6679C24.9641 25.2406 22.7525 32.2158 14.076 32.2158Z" fill="white"/>
<path d="M46.8112 32.2154C40.1763 32.2154 36.0933 27.7921 36.0933 18.9455V0.741982H43.2385V18.9455C43.2385 23.5389 45.4502 25.7506 49.1929 25.7506C56.5084 25.7506 59.2305 16.7339 59.2305 10.4392V0.741982H66.3757V31.5349H59.4005V20.1364C58.0395 26.4311 54.2968 32.2154 46.8112 32.2154Z" fill="white"/>
<path d="M109.074 0.21582C102.978 0.21582 99.1322 6.10473 97.8769 11.5497C97.6623 4.25276 94.0739 0.21582 88.3323 0.21582C83.3719 0.21582 78.7697 4.63952 77.5745 11.6378V0.739639H70.609V31.5333H77.6638V20.4939C77.6638 17.7571 78.8047 6.52583 85.9066 6.52583C90.5071 6.52583 90.9867 10.6756 90.9867 16.3482V31.5333H98.0382V20.4939C98.0382 17.7571 99.2264 6.52583 106.328 6.52583C110.925 6.52583 111.4 10.6756 111.4 16.3482V31.5333H118.461V13.319C118.493 4.58086 115.408 0.21582 109.074 0.21582Z" fill="white"/>
<path d="M154.927 0.21582C145.794 0.21582 139.606 7.37695 139.606 16.2158C139.606 25.9549 145.491 32.2156 154.927 32.2156C164.06 32.2156 170.358 25.0547 170.358 16.2158C170.358 6.4767 164.358 0.21582 154.927 0.21582ZM154.927 26.765C149.61 26.765 146.166 22.2638 146.166 16.2158C146.166 10.1677 149.622 5.66636 154.927 5.66636C160.231 5.66636 163.549 10.1677 163.549 16.2158C163.549 22.2638 160.228 26.765 154.927 26.765Z" fill="white"/>
</svg>
