<svg width="123" height="18" viewBox="0 0 123 18" fill="none" xmlns="http://www.w3.org/2000/svg">
<path d="M73.0267 0.548983C70.5077 0.548983 68.0453 2.83009 67.762 6.12605V0.8207H64.1446V16.8177H67.8064V9.0745C67.8064 6.90547 69.3438 3.84577 73.0267 3.84577V0.548983Z" fill="#7A7493"/>
<path d="M111.437 14.2568V3.29688H113.558C116.386 3.29688 118.685 5.0646 118.685 8.68845C118.685 12.3122 116.386 14.2568 113.558 14.2568H111.437ZM107.813 16.82H114C117.801 16.82 122.485 14.3452 122.485 8.68845C122.485 3.1201 117.801 0.822064 114 0.822064H107.813V16.82Z" fill="#7A7493"/>
<path d="M93.9473 8.86539C93.9473 5.94865 95.4498 3.56223 97.9245 3.56223C100.311 3.56223 101.637 5.94865 101.637 8.86539C101.637 11.7821 100.311 14.1686 97.9245 14.1686C95.4498 14.1686 93.9473 11.7821 93.9473 8.86539ZM90.2351 9.04214C90.2351 13.815 92.7097 17.1737 96.5987 17.1737C99.427 17.1737 101.106 15.3176 101.99 12.3124V16.8202H105.613V0.82226H101.99V5.06479C101.195 2.23643 99.5157 0.557101 96.8642 0.557101C92.8865 0.557101 90.2351 4.18093 90.2351 9.04214Z" fill="#7A7493"/>
<path d="M7.71366 17.1737C3.20596 17.1737 0.554382 13.5499 0.554382 9.04214C0.554382 4.3577 3.47112 0.557101 9.03944 0.557101C14.7845 0.557101 16.7291 4.44609 16.8174 6.65573H12.6633C12.5749 5.41834 11.5142 3.56223 8.95104 3.56223C6.21109 3.56223 4.44337 5.94865 4.44337 8.86539C4.44337 11.7821 6.21109 14.1686 8.95104 14.1686C11.4258 14.1686 12.4865 12.2241 12.9284 10.2796H8.95104V8.68859H17.2969V16.8202H13.6355V11.6937C13.3704 13.5499 12.2213 17.1737 7.71366 17.1737Z" fill="#7A7493"/>
<path d="M24.7206 17.1735C21.2736 17.1735 19.1523 14.8754 19.1523 10.2794V0.822064H22.8645V10.2794C22.8645 12.6658 24.0135 13.8148 25.958 13.8148C29.7586 13.8148 31.1728 9.13034 31.1728 5.86007V0.822064H34.885V16.82H31.2611V10.8981C30.5541 14.1684 28.6096 17.1735 24.7206 17.1735Z" fill="#7A7493"/>
<path d="M57.0682 0.548706C53.9009 0.548706 51.903 3.60818 51.2508 6.43702C51.1393 2.64602 49.2751 0.548706 46.2921 0.548706C43.715 0.548706 41.3241 2.84696 40.7031 6.4828V0.820846H37.0843V16.8191H40.7495V11.0838C40.7495 9.66193 41.3422 3.82696 45.0319 3.82696C47.422 3.82696 47.6712 5.9829 47.6712 8.92996V16.8191H51.3346V11.0838C51.3346 9.66193 51.9519 3.82696 55.6415 3.82696C58.0297 3.82696 58.2764 5.9829 58.2764 8.92996V16.8191H61.9448V7.35622C61.9615 2.81648 60.3586 0.548706 57.0682 0.548706Z" fill="#7A7493"/>
<path d="M80.8901 0.548706C76.1453 0.548706 72.9302 4.26914 72.9302 8.86118C72.9302 13.921 75.9879 17.1736 80.8901 17.1736C85.6348 17.1736 88.907 13.4533 88.907 8.86118C88.907 3.80143 85.79 0.548706 80.8901 0.548706ZM80.8901 14.3419C78.1278 14.3419 76.3387 12.0033 76.3387 8.86118C76.3387 5.71903 78.1339 3.38043 80.8901 3.38043C83.6457 3.38043 85.3694 5.71903 85.3694 8.86118C85.3694 12.0033 83.6441 14.3419 80.8901 14.3419Z" fill="#7A7493"/>
</svg>
