<svg width="137" height="30" viewBox="0 0 137 30" fill="none" xmlns="http://www.w3.org/2000/svg">
<path fill-rule="evenodd" clip-rule="evenodd" d="M14.0012 13.8923H0.183777V0.0748291H14.0012V13.8923ZM136.39 13.2294V10.834H133.416V7.11008L133.316 7.14091L130.522 7.99577L130.467 8.0125V10.8342H126.057V9.26225C126.057 8.53032 126.22 7.97021 126.543 7.59667C126.863 7.22761 127.321 7.03998 127.906 7.03998C128.326 7.03998 128.761 7.13893 129.198 7.33407L129.308 7.38308V4.8604L129.257 4.84143C128.848 4.69465 128.293 4.62073 127.604 4.62073C126.737 4.62073 125.948 4.80954 125.261 5.18374C124.573 5.55847 124.032 6.09341 123.653 6.77356C123.275 7.45292 123.083 8.23755 123.083 9.10585V10.834H121.012V13.2294H123.083V23.3208H126.057V13.2294H130.467V19.6423C130.467 22.2835 131.712 23.6219 134.169 23.6219C134.573 23.6219 134.998 23.5746 135.432 23.482C135.874 23.3868 136.174 23.2918 136.351 23.1904L136.391 23.1672V20.7496L136.27 20.8296C136.108 20.9371 135.907 21.025 135.672 21.0904C135.435 21.1569 135.237 21.1903 135.084 21.1903C134.509 21.1903 134.083 21.0352 133.819 20.7291C133.552 20.4202 133.416 19.8802 133.416 19.1246V13.2294H136.39ZM114.372 21.1906C113.293 21.1906 112.442 20.8328 111.842 20.1279C111.239 19.4194 110.933 18.4093 110.933 17.126C110.933 15.8019 111.239 14.7656 111.842 14.0446C112.442 13.3284 113.285 12.9648 114.348 12.9648C115.379 12.9648 116.199 13.312 116.787 13.9973C117.378 14.6862 117.678 15.7142 117.678 17.0536C117.678 18.4096 117.396 19.4511 116.84 20.1479C116.288 20.8394 115.457 21.1906 114.372 21.1906ZM114.504 10.5332C112.445 10.5332 110.81 11.1365 109.644 12.3265C108.478 13.5165 107.887 15.1634 107.887 17.2218C107.887 19.1768 108.464 20.7494 109.602 21.895C110.739 23.0411 112.288 23.6216 114.203 23.6216C116.199 23.6216 117.802 23.0099 118.967 21.8035C120.133 20.5984 120.723 18.9671 120.723 16.9568C120.723 14.9712 120.169 13.3869 119.076 12.2489C117.982 11.1103 116.444 10.5332 114.504 10.5332ZM103.093 10.5332C101.693 10.5332 100.534 10.8915 99.6491 11.5978C98.7587 12.3084 98.307 13.2404 98.307 14.3681C98.307 14.9543 98.4045 15.475 98.5963 15.9167C98.7894 16.3598 99.0881 16.7499 99.4849 17.0774C99.8788 17.4021 100.487 17.7423 101.292 18.0885C101.97 18.3672 102.475 18.6029 102.795 18.7887C103.109 18.9707 103.332 19.1538 103.457 19.332C103.579 19.5065 103.641 19.7452 103.641 20.0399C103.641 20.8788 103.013 21.287 101.72 21.287C101.241 21.287 100.694 21.1868 100.095 20.9895C99.5 20.7951 98.9386 20.5104 98.4302 20.1454L98.3067 20.0569V22.9196L98.3521 22.9407C98.7728 23.1349 99.3032 23.2987 99.9284 23.4275C100.552 23.5565 101.119 23.6222 101.612 23.6222C103.132 23.6222 104.356 23.2622 105.249 22.5516C106.148 21.8361 106.603 20.8822 106.603 19.7155C106.603 18.8738 106.358 18.152 105.875 17.5699C105.395 16.9925 104.561 16.4624 103.399 15.9939C102.474 15.6223 101.881 15.3139 101.636 15.0771C101.4 14.8484 101.28 14.5249 101.28 14.1152C101.28 13.7521 101.428 13.4612 101.732 13.2256C102.037 12.9888 102.463 12.8684 102.997 12.8684C103.492 12.8684 103.999 12.9467 104.503 13.1C105.007 13.2534 105.45 13.4588 105.819 13.7101L105.94 13.7931V11.0775L105.894 11.0575C105.553 10.9114 105.104 10.7863 104.558 10.6849C104.015 10.5841 103.522 10.5332 103.093 10.5332ZM90.5554 21.1906C89.4764 21.1906 88.6253 20.8328 88.0257 20.1279C87.4223 19.4194 87.1171 18.4096 87.1171 17.126C87.1171 15.8019 87.4227 14.7656 88.0264 14.0446C88.6259 13.3284 89.4685 12.9648 90.5316 12.9648C91.5622 12.9648 92.3829 13.312 92.971 13.9973C93.5619 14.6862 93.8617 15.7142 93.8617 17.0536C93.8617 18.4096 93.5796 19.4511 93.0236 20.1479C92.4713 20.8394 91.6414 21.1906 90.5554 21.1906ZM90.688 10.5332C88.6284 10.5332 86.9929 11.1365 85.8275 12.3265C84.6622 13.5165 84.071 15.1634 84.071 17.2218C84.071 19.1776 84.6481 20.7494 85.7857 21.895C86.9233 23.0411 88.4714 23.6216 90.3868 23.6216C92.3824 23.6216 93.9857 23.0099 95.1512 21.8035C96.3164 20.5984 96.9071 18.9671 96.9071 16.9568C96.9071 14.9712 96.3529 13.3869 95.2594 12.2489C94.1654 11.1103 92.6272 10.5332 90.688 10.5332ZM79.5574 12.9965V10.834H76.6202V23.3206H79.5574V16.9332C79.5574 15.8471 79.8036 14.9548 80.2896 14.2809C80.7693 13.615 81.4086 13.2775 82.1892 13.2775C82.4537 13.2775 82.7507 13.3211 83.0724 13.4074C83.3907 13.4932 83.6213 13.5864 83.7572 13.6844L83.8807 13.7739V10.8127L83.8331 10.7923C83.5596 10.676 83.1726 10.6174 82.683 10.6174C81.9449 10.6174 81.2844 10.8546 80.7186 11.3215C80.222 11.732 79.8631 12.2947 79.5886 12.9965H79.5574ZM71.3602 10.5332C70.0127 10.5332 68.8108 10.8222 67.7884 11.3918C66.764 11.9627 65.9717 12.7777 65.4327 13.8142C64.896 14.8481 64.6236 16.0558 64.6236 17.4027C64.6236 18.5825 64.8877 19.6651 65.4099 20.6193C65.9323 21.5751 66.6718 22.3229 67.6078 22.8415C68.5425 23.3594 69.6228 23.622 70.8189 23.622C72.2148 23.622 73.4066 23.343 74.3621 22.7926L74.4007 22.7705V20.0795L74.2772 20.1696C73.8444 20.4849 73.3607 20.7366 72.8403 20.9179C72.3211 21.0991 71.8478 21.1906 71.4328 21.1906C70.2803 21.1906 69.3551 20.83 68.6835 20.119C68.0104 19.4071 67.6692 18.4075 67.6692 17.1496C67.6692 15.8837 68.0251 14.8584 68.7264 14.1018C69.4257 13.3475 70.3526 12.9648 71.4813 12.9648C72.4467 12.9648 73.3875 13.2917 74.2775 13.9374L74.4007 14.0268V11.1915L74.3609 11.1691C74.026 10.9816 73.5691 10.8268 73.0021 10.7094C72.4373 10.5922 71.885 10.5332 71.3602 10.5332ZM62.6006 10.8342H59.6634V23.3206H62.6006V10.8342ZM61.1621 5.51485C60.6786 5.51485 60.257 5.67942 59.9106 6.00553C59.5628 6.33256 59.3863 6.74431 59.3863 7.23024C59.3863 7.70853 59.5607 8.11277 59.9052 8.43111C60.2475 8.74852 60.6705 8.9094 61.1622 8.9094C61.6538 8.9094 62.0783 8.74852 62.4247 8.43163C62.7734 8.11277 62.9502 7.70866 62.9502 7.23024C62.9502 6.76131 62.7781 6.35377 62.4391 6.01871C62.1003 5.6843 61.6705 5.51485 61.1621 5.51485ZM53.8336 9.91288V23.3206H56.8311V5.89709H52.6824L47.4091 18.8387L42.2916 5.89709H37.974V23.3204H40.7909V9.91157H40.8876L46.2915 23.3206H48.4173L53.7369 9.91288H53.8336ZM15.4401 13.8923H29.2573V0.0748291H15.4401V13.8923ZM14.0008 29.1538H0.183777V15.3365H14.0008V29.1538ZM15.4401 29.1538H29.2573V15.3365H15.4401V29.1538Z" fill="#7A7493"/>
</svg>
