<svg width="117" height="36" viewBox="0 0 117 36" fill="none" xmlns="http://www.w3.org/2000/svg">
<path d="M17.8754 0.639404C8.2346 0.639404 0.418823 8.45497 0.418823 18.0958C0.418823 27.737 8.2346 35.5519 17.8754 35.5519C27.5172 35.5519 35.3322 27.737 35.3322 18.0958C35.3322 8.45559 27.5172 0.640238 17.8752 0.640238L17.8754 0.639404ZM25.8809 25.8165C25.5682 26.3293 24.897 26.4919 24.3842 26.1771C20.2855 23.6736 15.1259 23.1066 9.04945 24.4949C8.4639 24.6283 7.88023 24.2614 7.74682 23.6757C7.61278 23.0899 7.9782 22.5062 8.56521 22.3728C15.2149 20.8536 20.9188 21.5077 25.5202 24.3198C26.033 24.6345 26.1956 25.3037 25.8809 25.8165ZM28.0175 21.0633C27.6235 21.7037 26.7856 21.9059 26.1456 21.5119C21.4533 18.6277 14.3006 17.7925 8.75053 19.4772C8.03073 19.6946 7.2705 19.2889 7.05204 18.5704C6.83525 17.8506 7.24111 17.0918 7.95965 16.873C14.2994 14.9494 22.1808 15.8811 27.5693 19.1924C28.2093 19.5864 28.4115 20.4244 28.0175 21.0635V21.0633ZM28.201 16.1138C22.5748 12.7721 13.2923 12.4648 7.92067 14.0951C7.05809 14.3567 6.14589 13.8698 5.88449 13.0072C5.62309 12.1442 6.10962 11.2326 6.97283 10.9704C13.1391 9.09847 23.3898 9.46013 29.8673 13.3055C30.6449 13.766 30.8992 14.768 30.4385 15.5428C29.9799 16.3187 28.9752 16.5745 28.2018 16.1138H28.201ZM47.9124 16.7541C44.8981 16.0354 44.3624 15.5309 44.3624 14.471C44.3624 13.4695 45.3046 12.7956 46.7075 12.7956C48.0666 12.7956 49.4132 13.3074 50.8266 14.3609C50.8683 14.3928 50.9225 14.4055 50.9746 14.3972C51.0288 14.3892 51.0746 14.3603 51.1059 14.3167L52.5776 12.2422C52.638 12.1567 52.6214 12.0389 52.5401 11.9737C50.8578 10.6244 48.9651 9.96834 46.7513 9.96834C43.4973 9.96834 41.2231 11.9214 41.2231 14.7157C41.2231 17.7122 43.1846 18.7732 46.5741 19.5922C49.457 20.2566 49.9448 20.8132 49.9448 21.8079C49.9448 22.9106 48.9609 23.5964 47.3766 23.5964C45.6173 23.5964 44.181 23.0023 42.576 21.614C42.5363 21.5786 42.4821 21.564 42.4321 21.5661C42.3779 21.5703 42.33 21.5953 42.2966 21.6349L40.6457 23.5985C40.5769 23.6819 40.5852 23.8028 40.6644 23.8737C42.5322 25.5413 44.8293 26.421 47.3099 26.421C50.8161 26.421 53.082 24.5053 53.082 21.539C53.0883 19.0361 51.5895 17.6499 47.9186 16.7569L47.9124 16.7541ZM61.0158 13.7816C59.4962 13.7816 58.2496 14.3803 57.2199 15.607V14.2262C57.2199 14.1172 57.1323 14.0284 57.0239 14.0284H54.3244C54.216 14.0284 54.1285 14.1172 54.1285 14.2262V29.5687C54.1285 29.677 54.216 29.7667 54.3244 29.7667H57.0239C57.1323 29.7667 57.2199 29.677 57.2199 29.5687V24.7263C58.2496 25.879 59.4962 26.4439 61.0158 26.4439C63.8404 26.4439 66.7003 24.2697 66.7003 20.1134C66.7045 15.9562 63.8445 13.7814 61.0179 13.7814L61.0158 13.7816ZM63.561 20.1134C63.561 22.229 62.2582 23.7069 60.3904 23.7069C58.5456 23.7069 57.1532 22.1623 57.1532 20.1134C57.1532 18.0643 58.5456 16.5201 60.3904 16.5201C62.2269 16.5198 63.561 18.0307 63.561 20.1132V20.1134ZM74.0275 13.7816C70.39 13.7816 67.5404 16.5824 67.5404 20.1586C67.5404 23.6965 70.3712 26.4669 73.9837 26.4669C77.6338 26.4669 80.4917 23.6757 80.4917 20.1134C80.4917 16.5632 77.6525 13.782 74.0275 13.782V13.7816ZM74.0275 23.7278C72.0931 23.7278 70.6339 22.1727 70.6339 20.1123C70.6339 18.0426 72.043 16.5407 73.9837 16.5407C75.9307 16.5407 77.3982 18.0951 77.3982 20.1576C77.3982 22.2269 75.9807 23.7278 74.0275 23.7278ZM88.2587 14.0284H85.2882V10.9921C85.2882 10.8833 85.2006 10.7944 85.0923 10.7944H82.3928C82.2844 10.7944 82.1947 10.8833 82.1947 10.9921V14.0284H80.8981C80.7898 14.0284 80.7022 14.1172 80.7022 14.2262V16.5457C80.7022 16.6545 80.7898 16.7435 80.8981 16.7435H82.1947V22.746C82.1947 25.1703 83.4017 26.4001 85.7843 26.4001C86.7515 26.4001 87.5541 26.2 88.3108 25.7706C88.3733 25.7373 88.4108 25.6706 88.4108 25.5997V23.3901C88.4108 23.3234 88.3754 23.2587 88.317 23.2233C88.2587 23.1858 88.1857 23.1837 88.1253 23.215C87.6062 23.4755 87.1038 23.5964 86.541 23.5964C85.6759 23.5964 85.2882 23.2025 85.2882 22.3228V16.7446H88.2587C88.3671 16.7446 88.4546 16.6558 88.4546 16.5467V14.2275C88.4588 14.1185 88.3712 14.0297 88.2607 14.0297L88.2587 14.0284ZM98.6063 14.0403V13.6674C98.6063 12.5703 99.0274 12.081 99.9696 12.081C100.532 12.081 100.985 12.1928 101.491 12.3616C101.554 12.3812 101.618 12.3714 101.669 12.3341C101.721 12.2968 101.75 12.2369 101.75 12.1736V9.89935C101.75 9.81242 101.696 9.7355 101.61 9.70986C101.077 9.55081 100.393 9.38759 99.3672 9.38759C96.8762 9.38759 95.5566 10.7913 95.5566 13.4456V14.0167H94.2601C94.1517 14.0167 94.062 14.1055 94.062 14.2143V16.5457C94.062 16.6545 94.1517 16.7435 94.2601 16.7435H95.5566V25.9999C95.5566 26.1104 95.6463 26.1979 95.7547 26.1979H98.4521C98.5626 26.1979 98.6501 26.1104 98.6501 25.9999V16.7441H101.17L105.031 25.9999C104.593 26.9713 104.162 27.1652 103.574 27.1652C103.099 27.1652 102.596 27.0234 102.085 26.742C102.037 26.717 101.979 26.7128 101.929 26.7274C101.877 26.7462 101.833 26.7837 101.812 26.8337L100.897 28.8411C100.853 28.937 100.891 29.0475 100.983 29.0975C101.937 29.6145 102.798 29.8355 103.864 29.8355C105.856 29.8355 106.959 28.9058 107.928 26.4085L112.61 14.3104C112.635 14.2496 112.627 14.1808 112.589 14.1268C112.554 14.0732 112.494 14.0409 112.429 14.0409H109.619C109.533 14.0409 109.458 14.0945 109.431 14.1735L106.553 22.3937L103.401 14.1681C103.372 14.0916 103.299 14.0409 103.217 14.0409H98.6063V14.0403ZM92.607 14.0284H89.9075C89.7991 14.0284 89.7095 14.1172 89.7095 14.2262V25.9999C89.7095 26.1104 89.7991 26.1979 89.9075 26.1979H92.607C92.7154 26.1979 92.8051 26.1104 92.8051 25.9999V14.2271C92.8051 14.118 92.7175 14.0292 92.607 14.0292V14.0284ZM91.2729 8.66718C90.2035 8.66718 89.3364 9.53268 89.3364 10.6018C89.3364 11.6716 90.2035 12.5382 91.2729 12.5382C92.3423 12.5382 93.2074 11.6716 93.2074 10.6018C93.2074 9.53288 92.3402 8.66718 91.2729 8.66718ZM114.916 17.8141C113.848 17.8141 113.017 16.9563 113.017 15.9147C113.017 14.8731 113.859 14.0055 114.926 14.0055C115.993 14.0055 116.825 14.8631 116.825 15.9039C116.825 16.9455 115.983 17.8141 114.916 17.8141ZM114.926 14.1943C113.953 14.1943 113.217 14.9677 113.217 15.9147C113.217 16.8613 113.949 17.6242 114.916 17.6242C115.889 17.6242 116.625 16.8515 116.625 15.9039C116.625 14.9573 115.893 14.1943 114.926 14.1943ZM115.347 16.0992L115.885 16.8513H115.431L114.947 16.1613H114.532V16.8513H114.153V14.8576H115.041C115.506 14.8576 115.81 15.0946 115.81 15.4936C115.812 15.8205 115.622 16.0202 115.349 16.0992H115.347ZM115.026 15.1997H114.532V15.8303H115.026C115.272 15.8303 115.42 15.7096 115.42 15.5147C115.42 15.3096 115.272 15.1997 115.026 15.1997Z" fill="#7A7493"/>
</svg>
