<svg width="64" height="64" viewBox="0 0 64 64" fill="none" xmlns="http://www.w3.org/2000/svg">
<path d="M0 25.6C0 16.6392 0 12.1587 1.7439 8.73615C3.27787 5.72556 5.72556 3.27787 8.73615 1.7439C12.1587 0 16.6392 0 25.6 0H38.4C47.3608 0 51.8413 0 55.2638 1.7439C58.2744 3.27787 60.7221 5.72556 62.2561 8.73615C64 12.1587 64 16.6392 64 25.6V38.4C64 47.3608 64 51.8413 62.2561 55.2638C60.7221 58.2744 58.2744 60.7221 55.2638 62.2561C51.8413 64 47.3608 64 38.4 64H25.6C16.6392 64 12.1587 64 8.73615 62.2561C5.72556 60.7221 3.27787 58.2744 1.7439 55.2638C0 51.8413 0 47.3608 0 38.4V25.6Z" fill="url(#paint0_linear_46_44716)"/>
<g filter="url(#filter0_d_46_44716)">
<path d="M11.6371 36.9875C11.223 37.5184 11.0106 38.0228 11 38.5006C11 38.9678 11.1487 39.3659 11.446 39.6951C11.7433 40.0137 12.1255 40.2101 12.5927 40.2844C13.0705 40.3481 13.5749 40.2313 14.1058 39.934L24.9522 33.8658L37.2958 40.587C37.9754 40.9587 38.5859 41.1445 39.1274 41.1445C40.0087 41.1445 40.7998 40.7091 41.5006 39.8385L52.4426 26.1411C52.8142 25.6739 53 25.2067 53 24.7395C53 24.2617 52.862 23.8529 52.5859 23.5131C52.3098 23.1627 51.9382 22.945 51.471 22.8601C51.0144 22.7751 50.5047 22.8813 49.942 23.1786L39.0956 29.2628L26.7679 22.5415C26.099 22.1805 25.4725 22 24.8885 22C24.0284 22 23.2533 22.4353 22.5631 23.306L11.6371 36.9875Z" fill="url(#paint1_linear_46_44716)" shape-rendering="crispEdges"/>
</g>
<defs>
<filter id="filter0_d_46_44716" x="10.5" y="21.75" width="43" height="20.1445" filterUnits="userSpaceOnUse" color-interpolation-filters="sRGB">
<feFlood flood-opacity="0" result="BackgroundImageFix"/>
<feColorMatrix in="SourceAlpha" type="matrix" values="0 0 0 0 0 0 0 0 0 0 0 0 0 0 0 0 0 0 127 0" result="hardAlpha"/>
<feOffset dy="0.25"/>
<feGaussianBlur stdDeviation="0.25"/>
<feComposite in2="hardAlpha" operator="out"/>
<feColorMatrix type="matrix" values="0 0 0 0 0 0 0 0 0 0 0 0 0 0 0 0 0 0 0.2 0"/>
<feBlend mode="normal" in2="BackgroundImageFix" result="effect1_dropShadow_46_44716"/>
<feBlend mode="normal" in="SourceGraphic" in2="effect1_dropShadow_46_44716" result="shape"/>
</filter>
<linearGradient id="paint0_linear_46_44716" x1="0" y1="32" x2="64" y2="32" gradientUnits="userSpaceOnUse">
<stop stop-color="#F3BCCE"/>
<stop offset="1" stop-color="#D1B3E3"/>
</linearGradient>
<linearGradient id="paint1_linear_46_44716" x1="32" y1="22" x2="32" y2="41.1445" gradientUnits="userSpaceOnUse">
<stop stop-color="white"/>
<stop offset="1" stop-color="white" stop-opacity="0.7"/>
</linearGradient>
</defs>
</svg>
