<svg width="64" height="64" viewBox="0 0 64 64" fill="none" xmlns="http://www.w3.org/2000/svg">
<path d="M0 25.6C0 16.6392 0 12.1587 1.7439 8.73615C3.27787 5.72556 5.72556 3.27787 8.73615 1.7439C12.1587 0 16.6392 0 25.6 0H38.4C47.3608 0 51.8413 0 55.2638 1.7439C58.2744 3.27787 60.7221 5.72556 62.2561 8.73615C64 12.1587 64 16.6392 64 25.6V38.4C64 47.3608 64 51.8413 62.2561 55.2638C60.7221 58.2744 58.2744 60.7221 55.2638 62.2561C51.8413 64 47.3608 64 38.4 64H25.6C16.6392 64 12.1587 64 8.73615 62.2561C5.72556 60.7221 3.27787 58.2744 1.7439 55.2638C0 51.8413 0 47.3608 0 38.4V25.6Z" fill="url(#paint0_linear_46_44675)"/>
<g filter="url(#filter0_d_46_44675)">
<path d="M19.2069 45.8987C20.4837 47.1884 21.8122 48.2654 23.1922 49.1295C24.5722 50.0065 25.92 50.7094 27.2356 51.2382C28.564 51.767 29.7828 52.1669 30.892 52.4377C32.0141 52.7086 32.9492 52.8827 33.6972 52.9601C34.3292 53.0632 34.8386 52.9665 35.2256 52.6699C35.6254 52.3861 35.8446 51.9863 35.8833 51.4704C35.9091 51.019 35.7802 50.6256 35.4964 50.2903C35.2256 49.9549 34.8128 49.7228 34.2583 49.5938C33.5747 49.4777 32.7363 49.2907 31.7432 49.0328C30.763 48.7877 29.6925 48.433 28.5318 47.9687C27.3839 47.5044 26.2167 46.9111 25.0301 46.1889C23.8435 45.4537 22.715 44.5444 21.6445 43.4611C19.9162 41.7199 18.5362 39.7982 17.5044 37.6959C16.4726 35.5807 15.8277 33.4333 15.5698 31.2536C15.3247 29.0739 15.4795 26.9974 16.0341 25.0241C16.6016 23.0508 17.6076 21.3419 19.0521 19.8973C20.2129 18.7624 21.522 17.9176 22.9794 17.363C24.4368 16.8084 25.9652 16.5182 27.5645 16.4924C29.1766 16.4537 30.7759 16.6407 32.3623 17.0534C33.9616 17.4533 35.4642 18.0272 36.87 18.7753L39.4237 16.2602C37.5923 15.1382 35.6447 14.2998 33.5811 13.7452C31.5304 13.1906 29.4797 12.9456 27.429 13.0101C25.3783 13.0746 23.4244 13.4744 21.5671 14.2095C19.7099 14.9318 18.059 16.0152 16.6145 17.4597C15.2344 18.8397 14.164 20.4261 13.403 22.2189C12.6421 24.0116 12.1906 25.9205 12.0488 27.9454C11.9069 29.9703 12.0746 32.0339 12.5518 34.1362C13.029 36.2256 13.8222 38.2763 14.9314 40.2883C16.0405 42.3003 17.4657 44.1704 19.2069 45.8987ZM26.2296 40.3076C27.3903 41.5329 28.693 42.5905 30.1375 43.4804C31.5949 44.3574 33.1168 45.041 34.7032 45.5311C36.2896 46.0212 37.8696 46.2792 39.443 46.305C41.0165 46.3179 42.5126 46.0728 43.9314 45.5698C45.3501 45.0539 46.6141 44.2478 47.7232 43.1515C48.8453 42.0165 49.6708 40.701 50.1996 39.2049C50.7284 37.6959 50.9541 36.0772 50.8767 34.349C50.8122 32.6078 50.4511 30.8344 49.7933 29.0288C49.1484 27.2102 48.2069 25.4368 46.9687 23.7085L44.4731 26.1849C45.6596 27.926 46.5044 29.6994 47.0074 31.5051C47.5104 33.3107 47.6265 35.0132 47.3557 36.6125C47.0977 38.2118 46.4012 39.5725 45.2663 40.6945C44.2216 41.7392 43.0479 42.4293 41.7452 42.7646C40.4426 43.087 39.0884 43.1257 37.6825 42.8807C36.2896 42.6356 34.9225 42.1584 33.5811 41.449C32.2527 40.7397 31.0468 39.8627 29.9634 38.818L26.2296 40.3076ZM29.383 37.0961L45.9434 20.5745L42.6545 17.2856L26.1135 33.8073L24.5077 37.7539C24.3917 38.0248 24.4368 38.2698 24.6432 38.4891C24.8624 38.6954 25.101 38.747 25.359 38.6438L29.383 37.0961ZM47.2976 19.2009L48.9034 17.5758C49.3032 17.1502 49.516 16.6601 49.5418 16.1055C49.5676 15.5509 49.3741 15.0737 48.9614 14.6739L48.4197 14.1322C48.0457 13.771 47.5878 13.6098 47.0461 13.6485C46.5044 13.6872 46.0337 13.9065 45.6338 14.3063L44.0281 15.912L47.2976 19.2009Z" fill="url(#paint1_linear_46_44675)" shape-rendering="crispEdges"/>
</g>
<defs>
<filter id="filter0_d_46_44675" x="11.5" y="12.75" width="39.8915" height="41" filterUnits="userSpaceOnUse" color-interpolation-filters="sRGB">
<feFlood flood-opacity="0" result="BackgroundImageFix"/>
<feColorMatrix in="SourceAlpha" type="matrix" values="0 0 0 0 0 0 0 0 0 0 0 0 0 0 0 0 0 0 127 0" result="hardAlpha"/>
<feOffset dy="0.25"/>
<feGaussianBlur stdDeviation="0.25"/>
<feComposite in2="hardAlpha" operator="out"/>
<feColorMatrix type="matrix" values="0 0 0 0 0 0 0 0 0 0 0 0 0 0 0 0 0 0 0.2 0"/>
<feBlend mode="normal" in2="BackgroundImageFix" result="effect1_dropShadow_46_44675"/>
<feBlend mode="normal" in="SourceGraphic" in2="effect1_dropShadow_46_44675" result="shape"/>
</filter>
<linearGradient id="paint0_linear_46_44675" x1="32" y1="0" x2="32" y2="64" gradientUnits="userSpaceOnUse">
<stop stop-color="#F9742C"/>
<stop offset="1" stop-color="#F20486"/>
</linearGradient>
<linearGradient id="paint1_linear_46_44675" x1="31.4457" y1="13" x2="31.4457" y2="53" gradientUnits="userSpaceOnUse">
<stop stop-color="white"/>
<stop offset="1" stop-color="white" stop-opacity="0.7"/>
</linearGradient>
</defs>
</svg>
