<svg width="64" height="64" viewBox="0 0 64 64" fill="none" xmlns="http://www.w3.org/2000/svg">
<path d="M0 25.6C0 16.6392 0 12.1587 1.7439 8.73615C3.27787 5.72556 5.72556 3.27787 8.73615 1.7439C12.1587 0 16.6392 0 25.6 0H38.4C47.3608 0 51.8413 0 55.2638 1.7439C58.2744 3.27787 60.7221 5.72556 62.2561 8.73615C64 12.1587 64 16.6392 64 25.6V38.4C64 47.3608 64 51.8413 62.2561 55.2638C60.7221 58.2744 58.2744 60.7221 55.2638 62.2561C51.8413 64 47.3608 64 38.4 64H25.6C16.6392 64 12.1587 64 8.73615 62.2561C5.72556 60.7221 3.27787 58.2744 1.7439 55.2638C0 51.8413 0 47.3608 0 38.4V25.6Z" fill="url(#paint0_radial_46_44705)"/>
<path d="M45 40C44.4478 40 44 40.448 44 41V43C44 43.552 44.4478 44 45 44H49C49.5522 44 50 43.552 50 43V41C50 40.448 49.5522 40 49 40H45Z" fill="black" fill-opacity="0.4"/>
<g filter="url(#filter0_d_46_44705)">
<path d="M35 20C34.4478 20 34 20.448 34 21V43C34 43.552 34.4478 44 35 44H39C39.5522 44 40 43.552 40 43V21C40 20.448 39.5522 20 39 20H35ZM25 28C24.4478 28 24 28.448 24 29V43C24 43.552 24.4478 44 25 44H29C29.5522 44 30 43.552 30 43V29C30 28.448 29.5522 28 29 28H25ZM15 36C14.4478 36 14 36.448 14 37V43C14 43.552 14.4478 44 15 44H19C19.5522 44 20 43.552 20 43V37C20 36.448 19.5522 36 19 36H15Z" fill="url(#paint1_linear_46_44705)" shape-rendering="crispEdges"/>
</g>
<defs>
<filter id="filter0_d_46_44705" x="13.5" y="19.75" width="27" height="25" filterUnits="userSpaceOnUse" color-interpolation-filters="sRGB">
<feFlood flood-opacity="0" result="BackgroundImageFix"/>
<feColorMatrix in="SourceAlpha" type="matrix" values="0 0 0 0 0 0 0 0 0 0 0 0 0 0 0 0 0 0 127 0" result="hardAlpha"/>
<feOffset dy="0.25"/>
<feGaussianBlur stdDeviation="0.25"/>
<feComposite in2="hardAlpha" operator="out"/>
<feColorMatrix type="matrix" values="0 0 0 0 0 0 0 0 0 0 0 0 0 0 0 0 0 0 0.2 0"/>
<feBlend mode="normal" in2="BackgroundImageFix" result="effect1_dropShadow_46_44705"/>
<feBlend mode="normal" in="SourceGraphic" in2="effect1_dropShadow_46_44705" result="shape"/>
</filter>
<radialGradient id="paint0_radial_46_44705" cx="0" cy="0" r="1" gradientUnits="userSpaceOnUse" gradientTransform="translate(32 32) rotate(90) scale(32)">
<stop stop-color="#FF8C4E" stop-opacity="0.56"/>
<stop offset="1" stop-color="#FFCDB4"/>
</radialGradient>
<linearGradient id="paint1_linear_46_44705" x1="27" y1="20" x2="27" y2="44" gradientUnits="userSpaceOnUse">
<stop stop-color="white"/>
<stop offset="1" stop-color="white" stop-opacity="0.7"/>
</linearGradient>
</defs>
</svg>
