<svg width="64" height="64" viewBox="0 0 64 64" fill="none" xmlns="http://www.w3.org/2000/svg">
<path d="M0 25.6C0 16.6392 0 12.1587 1.7439 8.73615C3.27787 5.72556 5.72556 3.27787 8.73615 1.7439C12.1587 0 16.6392 0 25.6 0H38.4C47.3608 0 51.8413 0 55.2638 1.7439C58.2744 3.27787 60.7221 5.72556 62.2561 8.73615C64 12.1587 64 16.6392 64 25.6V38.4C64 47.3608 64 51.8413 62.2561 55.2638C60.7221 58.2744 58.2744 60.7221 55.2638 62.2561C51.8413 64 47.3608 64 38.4 64H25.6C16.6392 64 12.1587 64 8.73615 62.2561C5.72556 60.7221 3.27787 58.2744 1.7439 55.2638C0 51.8413 0 47.3608 0 38.4V25.6Z" fill="#FF8C4E"/>
<g filter="url(#filter0_d_46_44685)">
<path d="M22.157 17.1584C21.1595 16.6595 20 17.4011 20 18.5158V43.9859C20 44.5537 20.336 45.0901 20.843 45.3433L23.843 46.8416C24.266 47.0528 24.734 47.0528 25.157 46.8416L27.5 45.6714L29.843 46.8416C30.266 47.0528 30.734 47.0528 31.157 46.8416L33.5 45.6714L35.843 46.8416C36.266 47.0528 36.734 47.0528 37.157 46.8416L39.5 45.6714L41.843 46.8416C42.8405 47.3405 44 46.5973 44 45.4842V20.0141C44 19.4462 43.664 18.9099 43.157 18.6567L40.157 17.1584C39.734 16.9472 39.266 16.9472 38.843 17.1584L36.5 18.3286L34.157 17.1584C33.734 16.9472 33.266 16.9472 32.843 17.1584L30.5 18.3286L28.157 17.1584C27.734 16.9472 27.266 16.9472 26.843 17.1584C26.5505 17.3038 25.2935 17.9315 24.5 18.3286L22.157 17.1584Z" fill="url(#paint0_linear_46_44685)" shape-rendering="crispEdges"/>
</g>
<path d="M27.5 24.5C26.672 24.5 26 25.172 26 26C26 26.828 26.672 27.5 27.5 27.5H32C32.828 27.5 33.5 26.828 33.5 26C33.5 25.172 32.828 24.5 32 24.5H27.5ZM36.5 24.5C35.672 24.5 35 25.172 35 26C35 26.828 35.672 27.5 36.5 27.5C37.328 27.5 38 26.828 38 26C38 25.172 37.328 24.5 36.5 24.5ZM27.5 30.5C26.672 30.5 26 31.172 26 32C26 32.828 26.672 33.5 27.5 33.5H32C32.828 33.5 33.5 32.828 33.5 32C33.5 31.172 32.828 30.5 32 30.5H27.5ZM36.5 30.5C35.672 30.5 35 31.172 35 32C35 32.828 35.672 33.5 36.5 33.5C37.328 33.5 38 32.828 38 32C38 31.172 37.328 30.5 36.5 30.5ZM27.5 36.5C26.672 36.5 26 37.172 26 38C26 38.828 26.672 39.5 27.5 39.5H32C32.828 39.5 33.5 38.828 33.5 38C33.5 37.172 32.828 36.5 32 36.5H27.5ZM36.5 36.5C35.672 36.5 35 37.172 35 38C35 38.828 35.672 39.5 36.5 39.5C37.328 39.5 38 38.828 38 38C38 37.172 37.328 36.5 36.5 36.5Z" fill="#FF8C4E"/>
<defs>
<filter id="filter0_d_46_44685" x="19.5" y="16.75" width="25" height="31" filterUnits="userSpaceOnUse" color-interpolation-filters="sRGB">
<feFlood flood-opacity="0" result="BackgroundImageFix"/>
<feColorMatrix in="SourceAlpha" type="matrix" values="0 0 0 0 0 0 0 0 0 0 0 0 0 0 0 0 0 0 127 0" result="hardAlpha"/>
<feOffset dy="0.25"/>
<feGaussianBlur stdDeviation="0.25"/>
<feComposite in2="hardAlpha" operator="out"/>
<feColorMatrix type="matrix" values="0 0 0 0 0 0 0 0 0 0 0 0 0 0 0 0 0 0 0.2 0"/>
<feBlend mode="normal" in2="BackgroundImageFix" result="effect1_dropShadow_46_44685"/>
<feBlend mode="normal" in="SourceGraphic" in2="effect1_dropShadow_46_44685" result="shape"/>
</filter>
<linearGradient id="paint0_linear_46_44685" x1="32" y1="17" x2="32" y2="47" gradientUnits="userSpaceOnUse">
<stop stop-color="white"/>
<stop offset="1" stop-color="white" stop-opacity="0.7"/>
</linearGradient>
</defs>
</svg>
