<svg width="24" height="25" viewBox="0 0 24 25" fill="none" xmlns="http://www.w3.org/2000/svg">
<path fill-rule="evenodd" clip-rule="evenodd" d="M12 0.741455C5.3724 0.741455 0 6.12225 0 12.7619C0 18.0719 3.438 22.5779 8.2068 24.1667C8.8068 24.2771 9.0252 23.9063 9.0252 23.5871C9.0252 23.3027 9.0156 22.5455 9.0096 21.5435C5.6712 22.2695 4.9668 19.9319 4.9668 19.9319C4.422 18.5423 3.6348 18.1727 3.6348 18.1727C2.5452 17.4287 3.7176 17.4431 3.7176 17.4431C4.9212 17.5271 5.5548 18.6815 5.5548 18.6815C6.6252 20.5175 8.364 19.9871 9.0468 19.6799C9.1572 18.9035 9.4668 18.3743 9.81 18.0743C7.146 17.7707 4.344 16.7387 4.344 12.1331C4.344 10.8215 4.812 9.74745 5.5788 8.90745C5.4552 8.60385 5.0436 7.38105 5.6964 5.72746C5.6964 5.72746 6.7044 5.40345 8.9964 6.95865C9.97532 6.69167 10.9853 6.55569 12 6.55425C13.02 6.55905 14.046 6.69226 15.0048 6.95865C17.2956 5.40345 18.3012 5.72625 18.3012 5.72625C18.9564 7.38105 18.5436 8.60385 18.4212 8.90745C19.1892 9.74745 19.6548 10.8215 19.6548 12.1331C19.6548 16.7507 16.848 17.7671 14.1756 18.0647C14.6064 18.4355 14.9892 19.1687 14.9892 20.2907C14.9892 21.8963 14.9748 23.1935 14.9748 23.5871C14.9748 23.9087 15.1908 24.2831 15.8004 24.1655C18.19 23.364 20.2672 21.8318 21.7386 19.7855C23.2099 17.7392 24.001 15.2822 24 12.7619C24 6.12225 18.6264 0.741455 12 0.741455Z" fill="#2F2B43" fill-opacity="0.6"/>
</svg>
