<svg width="24" height="25" viewBox="0 0 24 25" fill="none" xmlns="http://www.w3.org/2000/svg">
<path d="M7.55016 22.4915C16.6045 22.4915 21.5583 14.9882 21.5583 8.48338C21.5583 8.27244 21.5536 8.05681 21.5442 7.84588C22.5079 7.14898 23.3395 6.28577 24 5.29681C23.1025 5.69612 22.1496 5.9569 21.1739 6.07025C22.2013 5.45442 22.9705 4.48699 23.3391 3.34728C22.3726 3.92007 21.3156 4.32413 20.2134 4.54213C19.4708 3.75308 18.489 3.23063 17.4197 3.05557C16.3504 2.8805 15.2532 3.06257 14.2977 3.57361C13.3423 4.08466 12.5818 4.89622 12.1338 5.88283C11.6859 6.86943 11.5754 7.97613 11.8195 9.03181C9.86249 8.93361 7.94794 8.42522 6.19998 7.53961C4.45203 6.65401 2.90969 5.41095 1.67297 3.89103C1.0444 4.97476 0.852057 6.25716 1.13503 7.47761C1.418 8.69805 2.15506 9.76496 3.19641 10.4615C2.41463 10.4367 1.64998 10.2262 0.965625 9.84744V9.90838C0.964925 11.0457 1.3581 12.1481 2.07831 13.0283C2.79852 13.9085 3.80132 14.5121 4.91625 14.7365C4.19206 14.9346 3.43198 14.9635 2.69484 14.8209C3.00945 15.799 3.62157 16.6544 4.44577 17.2678C5.26997 17.8813 6.26512 18.2221 7.29234 18.2428C5.54842 19.6126 3.39417 20.3556 1.17656 20.3521C0.783287 20.3515 0.390399 20.3274 0 20.2799C2.25286 21.7253 4.87353 22.4929 7.55016 22.4915Z" fill="#2F2B43" fill-opacity="0.6"/>
</svg>
